<svg class="plot-b6771975cebdb a4416f515" fill="currentColor" font-family="system-ui, sans-serif" font-size="10" text-anchor="middle" width="800" height="400" viewBox="0 0 800 400" style="overflow: visible;" xmlns="http://www.w3.org/2000/svg" xmlns:xlink="http://www.w3.org/1999/xlink"><style>
        .plot-b6771975cebdb {
          display: block;
          background: white;
          height: auto;
          height: intrinsic;
          max-width: 100%;
        }
        .plot-b6771975cebdb text,
        .plot-b6771975cebdb tspan {
          white-space: pre;
        }
      </style><g aria-label="y-axis" aria-description="Kwh diff" transform="translate(50,0)" fill="none" text-anchor="end" font-variant="tabular-nums"><g class="tick" opacity="1" transform="translate(0,352.00580087623797)"><line stroke="currentColor" x2="-6"/><text fill="currentColor" x="-9" dy="0.32em">−80</text></g><g class="tick" opacity="1" transform="translate(0,328.6866928252291)"><line stroke="currentColor" x2="-6"/><text fill="currentColor" x="-9" dy="0.32em">−60</text></g><g class="tick" opacity="1" transform="translate(0,305.36758477422023)"><line stroke="currentColor" x2="-6"/><text fill="currentColor" x="-9" dy="0.32em">−40</text></g><g class="tick" opacity="1" transform="translate(0,282.0484767232114)"><line stroke="currentColor" x2="-6"/><text fill="currentColor" x="-9" dy="0.32em">−20</text></g><g class="tick" opacity="1" transform="translate(0,258.72936867220267)"><line stroke="currentColor" x2="-6"/><text fill="currentColor" x="-9" dy="0.32em">0</text></g><g class="tick" opacity="1" transform="translate(0,235.41026062119386)"><line stroke="currentColor" x2="-6"/><text fill="currentColor" x="-9" dy="0.32em">20</text></g><g class="tick" opacity="1" transform="translate(0,212.09115257018507)"><line stroke="currentColor" x2="-6"/><text fill="currentColor" x="-9" dy="0.32em">40</text></g><g class="tick" opacity="1" transform="translate(0,188.77204451917626)"><line stroke="currentColor" x2="-6"/><text fill="currentColor" x="-9" dy="0.32em">60</text></g><g class="tick" opacity="1" transform="translate(0,165.45293646816745)"><line stroke="currentColor" x2="-6"/><text fill="currentColor" x="-9" dy="0.32em">80</text></g><g class="tick" opacity="1" transform="translate(0,142.13382841715864)"><line stroke="currentColor" x2="-6"/><text fill="currentColor" x="-9" dy="0.32em">100</text></g><g class="tick" opacity="1" transform="translate(0,118.81472036614981)"><line stroke="currentColor" x2="-6"/><text fill="currentColor" x="-9" dy="0.32em">120</text></g><g class="tick" opacity="1" transform="translate(0,95.49561231514103)"><line stroke="currentColor" x2="-6"/><text fill="currentColor" x="-9" dy="0.32em">140</text></g><g class="tick" opacity="1" transform="translate(0,72.1765042641322)"><line stroke="currentColor" x2="-6"/><text fill="currentColor" x="-9" dy="0.32em">160</text></g><g class="tick" opacity="1" transform="translate(0,48.857396213123394)"><line stroke="currentColor" x2="-6"/><text fill="currentColor" x="-9" dy="0.32em">180</text></g><g class="tick" opacity="1" transform="translate(0,25.538288162114576)"><line stroke="currentColor" x2="-6"/><text fill="currentColor" x="-9" dy="0.32em">200</text></g><text fill="currentColor" transform="translate(-50,20)" dy="-1em" text-anchor="start">Kwh diff</text></g><g aria-label="x-axis" transform="translate(0,370)" fill="none" text-anchor="middle" font-variant="tabular-nums"><g class="tick" opacity="1" transform="translate(50.40275862068965,0)"><line stroke="currentColor" y2="6"/><text fill="currentColor" y="9" dy="0.71em">October</text></g><g class="tick" opacity="1" transform="translate(200.22896551724136,0)"><line stroke="currentColor" y2="6"/><text fill="currentColor" y="9" dy="0.71em">November</text></g><g class="tick" opacity="1" transform="translate(345.2220689655172,0)"><line stroke="currentColor" y2="6"/><text fill="currentColor" y="9" dy="0.71em">December</text></g><g class="tick" opacity="1" transform="translate(495.048275862069,0)"><line stroke="currentColor" y2="6"/><text fill="currentColor" y="9" dy="0.71em">2022</text></g><g class="tick" opacity="1" transform="translate(644.8744827586207,0)"><line stroke="currentColor" y2="6"/><text fill="currentColor" y="9" dy="0.71em">February</text></g></g><g aria-label="rect"><rect x="54.833103448275864" y="258.72936867220267" width="4.833103448275857" height="2.0325719351247358" fill="#89119c"/><rect x="59.66620689655172" y="258.72936867220267" width="4.833103448275871" height="7.3846619149845765" fill="#89119c"/><rect x="64.49931034482759" y="258.72936867220267" width="4.833103448275864" height="4.182522964691543" fill="#89119c"/><rect x="69.33241379310346" y="258.72936867220267" width="4.833103448275864" height="1.0833975671513372" fill="#89119c"/><rect x="74.16551724137932" y="258.72936867220267" width="4.833103448275864" height="10.436550182570386" fill="#89119c"/><rect x="78.99862068965518" y="258.72936867220267" width="4.833103448275864" height="7.2289546514113" fill="#89119c"/><rect x="83.83172413793105" y="258.0074938921399" width="4.83310344827585" height="0.7218747800627625" fill="#ff6300"/><rect x="88.6648275862069" y="258.72936867220267" width="4.833103448275864" height="5.308321047382435" fill="#89119c"/><rect x="93.49793103448276" y="258.72936867220267" width="4.833103448275864" height="9.62535756676408" fill="#89119c"/><rect x="98.33103448275862" y="258.72936867220267" width="4.83310344827585" height="6.168717808974236" fill="#89119c"/><rect x="103.16413793103447" y="258.72936867220267" width="4.833103448275864" height="18.892290336992346" fill="#89119c"/><rect x="107.99724137931034" y="258.72936867220267" width="4.833103448275864" height="24.74151949852211" fill="#89119c"/><rect x="112.8303448275862" y="258.72936867220267" width="4.833103448275864" height="16.762787293939596" fill="#89119c"/><rect x="117.66344827586207" y="258.72936867220267" width="4.833103448275864" height="11.750578964393583" fill="#89119c"/><rect x="122.49655172413793" y="258.72936867220267" width="4.833103448275864" height="11.862244501527073" fill="#89119c"/><rect x="127.3296551724138" y="258.72936867220267" width="4.833103448275864" height="27.841508202237492" fill="#89119c"/><rect x="132.16275862068966" y="258.72936867220267" width="4.833103448275864" height="15.702084384170576" fill="#89119c"/><rect x="136.99586206896552" y="256.3974578671018" width="4.8331034482758355" height="2.331910805100847" fill="#ff6300"/><rect x="141.82896551724136" y="255.23150246455134" width="4.833103448275892" height="3.4978662076513274" fill="#ff6300"/><rect x="146.66206896551725" y="258.72936867220267" width="4.833103448275864" height="27.123598104789096" fill="#89119c"/><rect x="151.4951724137931" y="258.72936867220267" width="4.833103448275864" height="28.898071587337256" fill="#89119c"/><rect x="156.32827586206898" y="258.72936867220267" width="4.833103448275864" height="27.575087460484042" fill="#89119c"/><rect x="161.16137931034484" y="258.72936867220267" width="4.8331034482758355" height="35.2288828542562" fill="#89119c"/><rect x="165.99448275862068" y="258.72936867220267" width="4.833103448275864" height="6.967281978253936" fill="#89119c"/><rect x="170.82758620689654" y="258.72936867220267" width="4.833103448275892" height="0" fill="#89119c"/><rect x="175.66068965517243" y="258.72936867220267" width="4.833103448275864" height="3.299254063680337" fill="#89119c"/><rect x="180.4937931034483" y="254.38520596386343" width="4.8331034482758355" height="4.3441627083392405" fill="#ff6300"/><rect x="185.32689655172413" y="258.72936867220267" width="4.833103448275864" height="0" fill="#89119c"/><rect x="190.16" y="258.72936867220267" width="4.833103448275864" height="0" fill="#89119c"/><rect x="194.99310344827586" y="258.72936867220267" width="4.833103448275864" height="0" fill="#89119c"/><rect x="200.02758620689656" y="258.72936867220267" width="4.833103448275864" height="18.490237408158862" fill="#89119c"/><rect x="204.86068965517242" y="237.10054386500641" width="4.833103448275864" height="21.628824807196253" fill="#ff6300"/><rect x="209.6937931034483" y="257.9876801358763" width="4.8331034482758355" height="0.7416885363263646" fill="#ff6300"/><rect x="214.52689655172412" y="258.72936867220267" width="4.833103448275892" height="22.177792745988825" fill="#89119c"/><rect x="219.36" y="258.72936867220267" width="4.8331034482758355" height="23.921133141439782" fill="#89119c"/><rect x="224.19310344827585" y="258.72936867220267" width="4.833103448275864" height="34.55451135469815" fill="#89119c"/><rect x="229.0262068965517" y="258.72936867220267" width="4.833103448275864" height="24.08639922142794" fill="#89119c"/><rect x="233.85931034482758" y="258.72936867220267" width="4.833103448275864" height="25.24496145532686" fill="#89119c"/><rect x="238.69241379310344" y="258.72936867220267" width="4.833103448275864" height="31.805651023820303" fill="#89119c"/><rect x="243.5255172413793" y="258.72936867220267" width="4.833103448275892" height="48.32481315609789" fill="#89119c"/><rect x="248.3586206896552" y="258.72936867220267" width="4.8331034482758355" height="57.83595647478512" fill="#89119c"/><rect x="253.19172413793103" y="258.72936867220267" width="4.833103448275892" height="31.256453376355694" fill="#89119c"/><rect x="258.0248275862069" y="258.72936867220267" width="4.8331034482758355" height="5.430029248178641" fill="#89119c"/><rect x="262.85793103448276" y="258.72936867220267" width="4.833103448275892" height="10.456387583700575" fill="#89119c"/><rect x="267.69103448275865" y="258.72936867220267" width="4.8331034482758355" height="39.138731987887866" fill="#89119c"/><rect x="272.5241379310345" y="258.72936867220267" width="4.8331034482758355" height="38.83259701037974" fill="#89119c"/><rect x="277.3572413793103" y="258.72936867220267" width="4.833103448275892" height="14.240036667774632" fill="#89119c"/><rect x="282.1903448275862" y="258.72936867220267" width="4.8331034482758355" height="27.221143421004854" fill="#89119c"/><rect x="287.02344827586205" y="258.72936867220267" width="4.8331034482758355" height="33.02876088032065" fill="#89119c"/><rect x="291.8565517241379" y="258.72936867220267" width="4.833103448275949" height="42.53581124048361" fill="#89119c"/><rect x="296.68965517241384" y="258.72936867220267" width="4.8331034482758355" height="55.0365944511297" fill="#89119c"/><rect x="301.5227586206897" y="258.72936867220267" width="4.8331034482758355" height="34.595375145370554" fill="#89119c"/><rect x="306.3558620689655" y="258.72936867220267" width="4.833103448275892" height="32.89642235446132" fill="#89119c"/><rect x="311.1889655172414" y="258.72936867220267" width="4.8331034482758355" height="45.78236278577998" fill="#89119c"/><rect x="316.02206896551724" y="258.72936867220267" width="4.8331034482758355" height="34.96891306431786" fill="#89119c"/><rect x="320.85517241379307" y="258.72936867220267" width="4.833103448275892" height="37.97584218540874" fill="#89119c"/><rect x="325.68827586206896" y="258.72936867220267" width="4.833103448275892" height="50.58928437362698" fill="#89119c"/><rect x="330.52137931034486" y="258.72936867220267" width="4.8331034482758355" height="44.74767950720502" fill="#89119c"/><rect x="335.3544827586207" y="258.72936867220267" width="4.8331034482758355" height="44.01632827189172" fill="#89119c"/><rect x="340.1875862068965" y="258.72936867220267" width="4.833103448275892" height="33.958203983424596" fill="#89119c"/><rect x="345.0206896551724" y="258.72936867220267" width="4.8331034482758355" height="23.2748761101372" fill="#89119c"/><rect x="349.85379310344825" y="258.72936867220267" width="4.8331034482758355" height="38.78185799808011" fill="#89119c"/><rect x="354.6868965517241" y="258.72936867220267" width="4.833103448275892" height="42.614998197565455" fill="#89119c"/><rect x="359.52" y="258.72936867220267" width="4.833103448275892" height="5.900236834834914" fill="#89119c"/><rect x="364.3531034482759" y="258.72936867220267" width="4.8331034482758355" height="39.36145760218716" fill="#89119c"/><rect x="369.1862068965517" y="258.72936867220267" width="4.833103448275892" height="35.23489551656263" fill="#89119c"/><rect x="374.0193103448276" y="258.72936867220267" width="4.8331034482758355" height="34.378101317341134" fill="#89119c"/><rect x="378.85241379310344" y="258.72936867220267" width="4.8331034482758355" height="28.95707319870843" fill="#89119c"/><rect x="383.6855172413793" y="258.72936867220267" width="4.833103448275949" height="30.61753639865327" fill="#89119c"/><rect x="388.5186206896552" y="258.72936867220267" width="4.833103448275779" height="50.69050008824246" fill="#89119c"/><rect x="393.351724137931" y="258.72936867220267" width="4.833103448275892" height="44.81917615307299" fill="#89119c"/><rect x="398.1848275862069" y="225.90612576682503" width="4.833103448275892" height="32.82324290537764" fill="#ff6300"/><rect x="403.0179310344828" y="258.72936867220267" width="4.8331034482758355" height="33.93265761145682" fill="#89119c"/><rect x="407.8510344827586" y="258.72936867220267" width="4.8331034482758355" height="35.42822939574489" fill="#89119c"/><rect x="412.68413793103446" y="258.72936867220267" width="4.833103448275892" height="37.18752724952259" fill="#89119c"/><rect x="417.51724137931035" y="258.72936867220267" width="4.8331034482758355" height="24.067143950272282" fill="#89119c"/><rect x="422.3503448275862" y="258.72936867220267" width="4.833103448275892" height="29.965042692586792" fill="#89119c"/><rect x="427.1834482758621" y="258.72936867220267" width="4.833103448275892" height="63.071645937151175" fill="#89119c"/><rect x="432.01655172413797" y="258.72936867220267" width="4.833103448275779" height="40.40432754371534" fill="#89119c"/><rect x="436.84965517241375" y="258.72936867220267" width="4.833103448275892" height="27.97973658504685" fill="#89119c"/><rect x="441.68275862068964" y="228.67355776915497" width="4.833103448275892" height="30.0558109030477" fill="#ff6300"/><rect x="446.51586206896553" y="258.72936867220267" width="4.8331034482758355" height="51.30301110837911" fill="#89119c"/><rect x="451.34896551724137" y="258.72936867220267" width="4.833103448275892" height="6.631664752170934" fill="#89119c"/><rect x="456.18206896551726" y="258.72936867220267" width="4.8331034482758355" height="8.434802972338161" fill="#89119c"/><rect x="461.0151724137931" y="258.72936867220267" width="4.833103448275892" height="6.216946287867586" fill="#89119c"/><rect x="465.848275862069" y="258.72936867220267" width="4.8331034482758355" height="14.966662427655535" fill="#89119c"/><rect x="470.6813793103448" y="258.72936867220267" width="4.833103448275892" height="33.42898591708786" fill="#89119c"/><rect x="475.5144827586207" y="258.72936867220267" width="4.833103448275892" height="3.5883254759075953" fill="#89119c"/><rect x="480.3475862068966" y="258.72936867220267" width="4.833103448275779" height="0" fill="#89119c"/><rect x="485.1806896551724" y="248.2357700492487" width="4.833103448275892" height="10.493598622953954" fill="#ff6300"/><rect x="490.0137931034483" y="237.38367549210776" width="4.833103448275892" height="21.345693180094912" fill="#ff6300"/><rect x="494.84689655172417" y="258.72936867220267" width="4.8331034482758355" height="9.971321453777364" fill="#89119c"/><rect x="499.68" y="256.2954382937327" width="4.8331034482758355" height="2.433930378469995" fill="#ff6300"/><rect x="504.51310344827584" y="258.72936867220267" width="4.833103448275892" height="18.174662414573277" fill="#89119c"/><rect x="509.34620689655173" y="258.72936867220267" width="4.833103448275892" height="26.351851874253214" fill="#89119c"/><rect x="514.1793103448276" y="258.72936867220267" width="4.833103448275892" height="40.500471489711515" fill="#89119c"/><rect x="519.0124137931035" y="258.72936867220267" width="4.833103448275779" height="32.93202577388047" fill="#89119c"/><rect x="523.8455172413793" y="258.72936867220267" width="4.833103448275892" height="33.87761229409199" fill="#89119c"/><rect x="528.6786206896552" y="258.72936867220267" width="4.833103448275892" height="27.553830197409923" fill="#89119c"/><rect x="533.5117241379311" y="258.72936867220267" width="4.833103448275779" height="46.52607883706207" fill="#89119c"/><rect x="538.3448275862069" y="258.72936867220267" width="4.833103448275892" height="45.00061806042817" fill="#89119c"/><rect x="543.1779310344828" y="258.72936867220267" width="4.833103448275892" height="59.16068746909798" fill="#89119c"/><rect x="548.0110344827586" y="258.72936867220267" width="4.833103448275892" height="61.467976514180805" fill="#89119c"/><rect x="552.8441379310345" y="258.72936867220267" width="4.833103448275779" height="39.664708805448186" fill="#89119c"/><rect x="557.6772413793103" y="258.72936867220267" width="4.833103448275892" height="38.873009779148504" fill="#89119c"/><rect x="562.5103448275862" y="258.72936867220267" width="4.833103448275892" height="70.78783708956263" fill="#89119c"/><rect x="567.3434482758621" y="258.72936867220267" width="4.833103448275892" height="75.20415118501859" fill="#89119c"/><rect x="572.176551724138" y="258.72936867220267" width="4.833103448275779" height="34.26131273511203" fill="#89119c"/><rect x="577.0096551724138" y="258.72936867220267" width="4.833103448275892" height="111.27063132779733" fill="#89119c"/><rect x="581.8427586206897" y="258.72936867220267" width="4.833103448275779" height="52.66713577892085" fill="#89119c"/><rect x="586.6758620689654" y="258.72936867220267" width="4.833103448275892" height="47.25976729513093" fill="#89119c"/></g><g aria-label="rule" stroke="gray"><line x1="55.235862068965524" x2="55.235862068965524" y1="258.72936867220267" y2="24.54722606994668"/></g><g aria-label="text" text-anchor="start"><text y="0.32em" transform="translate(55.235862068965524,20)">Installation new roof</text></g><g class="hover" style="pointer-events: none; text-anchor: middle;"/><style xmlns="http://www.w3.org/1999/xhtml">
      .a4416f515 .has-title {
       cursor: pointer; 
       pointer-events: all;
      }
      .a4416f515 .has-title:hover {
        fill:blue;opacity:0.5;
    }
    </style></svg>