<svg class="plot-02736a41bfe44" fill="currentColor" font-family="system-ui, sans-serif" font-size="10" text-anchor="middle" width="800" height="300" viewBox="0 0 800 300" xmlns="http://www.w3.org/2000/svg" xmlns:xlink="http://www.w3.org/1999/xlink"><style>
        .plot-02736a41bfe44 {
          display: block;
          background: white;
          height: auto;
          height: intrinsic;
          max-width: 100%;
        }
        .plot-02736a41bfe44 text,
        .plot-02736a41bfe44 tspan {
          white-space: pre;
        }
      </style><g aria-label="y-axis" transform="translate(50,0)" fill="none" text-anchor="end" font-variant="tabular-nums"><g class="tick" opacity="1" transform="translate(0,270)"><line stroke="currentColor" x2="-6"/><text fill="currentColor" x="-9" dy="0.32em">0</text></g><g class="tick" opacity="1" transform="translate(0,245.57997557997558)"><line stroke="currentColor" x2="-6"/><text fill="currentColor" x="-9" dy="0.32em">20</text></g><g class="tick" opacity="1" transform="translate(0,221.15995115995116)"><line stroke="currentColor" x2="-6"/><text fill="currentColor" x="-9" dy="0.32em">40</text></g><g class="tick" opacity="1" transform="translate(0,196.73992673992672)"><line stroke="currentColor" x2="-6"/><text fill="currentColor" x="-9" dy="0.32em">60</text></g><g class="tick" opacity="1" transform="translate(0,172.31990231990233)"><line stroke="currentColor" x2="-6"/><text fill="currentColor" x="-9" dy="0.32em">80</text></g><g class="tick" opacity="1" transform="translate(0,147.89987789987788)"><line stroke="currentColor" x2="-6"/><text fill="currentColor" x="-9" dy="0.32em">100</text></g><g class="tick" opacity="1" transform="translate(0,123.47985347985347)"><line stroke="currentColor" x2="-6"/><text fill="currentColor" x="-9" dy="0.32em">120</text></g><g class="tick" opacity="1" transform="translate(0,99.05982905982907)"><line stroke="currentColor" x2="-6"/><text fill="currentColor" x="-9" dy="0.32em">140</text></g><g class="tick" opacity="1" transform="translate(0,74.63980463980464)"><line stroke="currentColor" x2="-6"/><text fill="currentColor" x="-9" dy="0.32em">160</text></g><g class="tick" opacity="1" transform="translate(0,50.219780219780226)"><line stroke="currentColor" x2="-6"/><text fill="currentColor" x="-9" dy="0.32em">180</text></g><g class="tick" opacity="1" transform="translate(0,25.799755799755808)"><line stroke="currentColor" x2="-6"/><text fill="currentColor" x="-9" dy="0.32em">200</text></g></g><g aria-label="x-axis" transform="translate(0,270)" fill="none" text-anchor="middle" font-variant="tabular-nums"><g class="tick" opacity="1" transform="translate(62.807017543859644,0)"><line stroke="currentColor" y2="6"/><text fill="currentColor" y="9" dy="0.71em">Oct 03</text></g><g class="tick" opacity="1" transform="translate(107.63157894736841,0)"><line stroke="currentColor" y2="6"/><text fill="currentColor" y="9" dy="0.71em">Oct 10</text></g><g class="tick" opacity="1" transform="translate(152.4561403508772,0)"><line stroke="currentColor" y2="6"/><text fill="currentColor" y="9" dy="0.71em">Oct 17</text></g><g class="tick" opacity="1" transform="translate(197.28070175438594,0)"><line stroke="currentColor" y2="6"/><text fill="currentColor" y="9" dy="0.71em">Oct 24</text></g><g class="tick" opacity="1" transform="translate(242.1052631578947,0)"><line stroke="currentColor" y2="6"/><text fill="currentColor" y="9" dy="0.71em">Oct 31</text></g><g class="tick" opacity="1" transform="translate(286.9298245614035,0)"><line stroke="currentColor" y2="6"/><text fill="currentColor" y="9" dy="0.71em">Nov 07</text></g><g class="tick" opacity="1" transform="translate(331.7543859649123,0)"><line stroke="currentColor" y2="6"/><text fill="currentColor" y="9" dy="0.71em">Nov 14</text></g><g class="tick" opacity="1" transform="translate(376.5789473684211,0)"><line stroke="currentColor" y2="6"/><text fill="currentColor" y="9" dy="0.71em">Nov 21</text></g><g class="tick" opacity="1" transform="translate(421.40350877192986,0)"><line stroke="currentColor" y2="6"/><text fill="currentColor" y="9" dy="0.71em">Nov 28</text></g><g class="tick" opacity="1" transform="translate(466.22807017543863,0)"><line stroke="currentColor" y2="6"/><text fill="currentColor" y="9" dy="0.71em">Dec 05</text></g><g class="tick" opacity="1" transform="translate(511.05263157894734,0)"><line stroke="currentColor" y2="6"/><text fill="currentColor" y="9" dy="0.71em">Dec 12</text></g><g class="tick" opacity="1" transform="translate(555.8771929824562,0)"><line stroke="currentColor" y2="6"/><text fill="currentColor" y="9" dy="0.71em">Dec 19</text></g><g class="tick" opacity="1" transform="translate(600.7017543859649,0)"><line stroke="currentColor" y2="6"/><text fill="currentColor" y="9" dy="0.71em">Dec 26</text></g><g class="tick" opacity="1" transform="translate(645.5263157894736,0)"><line stroke="currentColor" y2="6"/><text fill="currentColor" y="9" dy="0.71em">Jan 02</text></g><g class="tick" opacity="1" transform="translate(690.3508771929825,0)"><line stroke="currentColor" y2="6"/><text fill="currentColor" y="9" dy="0.71em">Jan 09</text></g><g class="tick" opacity="1" transform="translate(735.1754385964913,0)"><line stroke="currentColor" y2="6"/><text fill="currentColor" y="9" dy="0.71em">Jan 16</text></g><g class="tick" opacity="1" transform="translate(780,0)"><line stroke="currentColor" y2="6"/><text fill="currentColor" y="9" dy="0.71em">Jan 23</text></g></g><g aria-label="line" fill="none" stroke="#5b6187" stroke-width="1.5" stroke-linejoin="round" stroke-linecap="round"><path d="M55.869883040935676,261.45299145299145L59.07163742690059,261.45299145299145L59.07163742690059,263.8949938949939L65.4751461988304,263.8949938949939L65.4751461988304,249.24297924297923L71.87865497076024,249.24297924297923L71.87865497076024,239.47496947496947L78.28216374269006,239.47496947496947L78.28216374269006,251.6849816849817L84.68567251461988,251.6849816849817L84.68567251461988,250.46398046398048L91.0891812865497,250.46398046398048L91.0891812865497,249.24297924297923L97.49269005847954,249.24297924297923L97.49269005847954,251.6849816849817L103.89619883040936,251.6849816849817L103.89619883040936,245.57997557997558L110.29970760233917,245.57997557997558L110.29970760233917,250.46398046398048L116.703216374269,250.46398046398048L116.703216374269,245.57997557997558L123.10672514619884,245.57997557997558L123.10672514619884,246.8009768009768L129.51023391812865,246.8009768009768L129.51023391812865,235.81196581196582L135.91374269005848,235.81196581196582L135.91374269005848,243.13797313797312L142.3172514619883,243.13797313797312L142.3172514619883,245.57997557997558L148.72076023391813,245.57997557997558L148.72076023391813,241.9169719169719L155.12426900584796,241.9169719169719L155.12426900584796,250.46398046398048L161.52777777777777,250.46398046398048L161.52777777777777,265.1159951159951L167.9312865497076,265.1159951159951L167.9312865497076,263.8949938949939L174.33479532163742,263.8949938949939L174.33479532163742,252.9059829059829L180.73830409356725,252.9059829059829L180.73830409356725,227.26495726495725L187.14181286549706,227.26495726495725L187.14181286549706,268.77899877899875L193.5453216374269,268.77899877899875L193.5453216374269,267.55799755799757L199.94883040935673,267.55799755799757L199.94883040935673,267.55799755799757L206.35233918128654,267.55799755799757L206.35233918128654,267.55799755799757L212.75584795321637,267.55799755799757L212.75584795321637,267.55799755799757L219.15935672514618,267.55799755799757L219.15935672514618,263.8949938949939L225.56286549707602,263.8949938949939L225.56286549707602,267.55799755799757L231.96637426900583,267.55799755799757L231.96637426900583,267.55799755799757L238.3698830409357,267.55799755799757L238.3698830409357,267.55799755799757L244.90679824561403,267.55799755799757L244.90679824561403,266.3369963369964L251.4437134502924,266.3369963369964L251.4437134502924,213.83394383394386L257.8472222222222,213.83394383394386L257.8472222222222,211.3919413919414L264.25073099415204,211.3919413919414L264.25073099415204,215.05494505494508L270.6542397660819,215.05494505494508L270.6542397660819,227.26495726495725L277.05774853801165,227.26495726495725L277.05774853801165,213.83394383394386L283.4612573099415,213.83394383394386L283.4612573099415,234.5909645909646L289.8647660818714,234.5909645909646L289.8647660818714,226.04395604395603L296.2682748538012,226.04395604395603L296.2682748538012,216.2759462759463L302.671783625731,216.2759462759463L302.671783625731,211.3919413919414L309.07529239766086,211.3919413919414L309.07529239766086,204.0659340659341L315.47880116959067,204.0659340659341L315.47880116959067,205.28693528693532L321.8823099415205,205.28693528693532L321.8823099415205,230.92796092796092L328.28581871345034,230.92796092796092L328.28581871345034,228.4859584859585L334.6893274853801,228.4859584859585L334.6893274853801,217.4969474969475L341.09283625730995,217.4969474969475L341.09283625730995,223.6019536019536L347.4963450292398,223.6019536019536L347.4963450292398,232.14896214896214L353.89985380116957,232.14896214896214L353.89985380116957,218.71794871794873L360.30336257309943,218.71794871794873L360.30336257309943,229.7069597069597L366.70687134502924,229.7069597069597L366.70687134502924,216.2759462759463L373.11038011695905,216.2759462759463L373.11038011695905,222.38095238095238L379.51388888888886,222.38095238095238L379.51388888888886,197.960927960928L385.9173976608187,197.960927960928L385.9173976608187,195.5189255189255L392.32090643274853,195.5189255189255L392.32090643274853,201.62393162393164L398.7244152046784,201.62393162393164L398.7244152046784,205.28693528693532L405.1279239766082,205.28693528693532L405.1279239766082,199.1819291819292L411.531432748538,199.1819291819292L411.531432748538,186.97191697191698L417.9349415204679,186.97191697191698L417.9349415204679,194.29792429792428L424.3384502923977,194.29792429792428L424.3384502923977,189.41391941391942L430.7419590643275,189.41391941391942L430.7419590643275,205.28693528693532L437.1454678362573,205.28693528693532L437.1454678362573,223.6019536019536L443.5489766081871,223.6019536019536L443.5489766081871,201.62393162393164L449.95248538011697,201.62393162393164L449.95248538011697,191.85592185592185L456.35599415204683,191.85592185592185L456.35599415204683,207.72893772893775L462.7595029239766,207.72893772893775L462.7595029239766,194.29792429792428L469.1630116959064,194.29792429792428L469.1630116959064,207.72893772893775L475.56652046783626,207.72893772893775L475.56652046783626,200.40293040293042L481.97002923976606,200.40293040293042L481.97002923976606,189.41391941391942L488.3735380116959,189.41391941391942L488.3735380116959,185.75091575091574L494.77704678362574,185.75091575091574L494.77704678362574,232.14896214896214L501.1805555555556,232.14896214896214L501.1805555555556,256.5689865689866L507.5840643274854,256.5689865689866L507.5840643274854,207.72893772893775L513.9875730994152,207.72893772893775L513.9875730994152,223.6019536019536L520.391081871345,223.6019536019536L520.391081871345,207.72893772893775L526.7945906432749,207.72893772893775L526.7945906432749,226.04395604395603L533.1980994152048,226.04395604395603L533.1980994152048,228.4859584859585L539.6016081871345,228.4859584859585L539.6016081871345,217.4969474969475L546.0051169590643,217.4969474969475L546.0051169590643,267.55799755799757L552.4086257309941,267.55799755799757L552.4086257309941,256.5689865689866L558.812134502924,256.5689865689866L558.812134502924,266.3369963369964L565.2156432748537,266.3369963369964L565.2156432748537,139.35286935286933L571.6191520467836,139.35286935286933L571.6191520467836,151.56288156288156L578.0226608187135,151.56288156288156L578.0226608187135,140.57387057387055L584.4261695906432,140.57387057387055L584.4261695906432,186.97191697191698L590.8296783625731,186.97191697191698L590.8296783625731,186.97191697191698L597.2331871345028,186.97191697191698L597.2331871345028,204.0659340659341L603.6366959064327,204.0659340659341L603.6366959064327,267.55799755799757L610.0402046783626,267.55799755799757L610.0402046783626,266.3369963369964L616.4437134502924,266.3369963369964L616.4437134502924,267.55799755799757L622.8472222222223,267.55799755799757L622.8472222222223,256.5689865689866L629.2507309941521,256.5689865689866L629.2507309941521,222.38095238095238L635.6542397660819,222.38095238095238L635.6542397660819,223.6019536019536L642.0577485380117,223.6019536019536L642.0577485380117,226.04395604395603L648.4612573099415,226.04395604395603L648.4612573099415,243.13797313797312L654.8647660818714,243.13797313797312L654.8647660818714,218.71794871794873L661.2682748538012,218.71794871794873L661.2682748538012,193.07692307692307L667.671783625731,193.07692307692307L667.671783625731,175.98290598290598L674.0752923976609,175.98290598290598L674.0752923976609,194.29792429792428L680.4788011695907,194.29792429792428L680.4788011695907,191.85592185592185L686.8823099415205,191.85592185592185L686.8823099415205,201.62393162393164L693.2858187134502,201.62393162393164L693.2858187134502,180.86691086691084L699.6893274853801,180.86691086691084L699.6893274853801,171.0989010989011L706.09283625731,171.0989010989011L706.09283625731,185.75091575091574L712.4963450292398,185.75091575091574L712.4963450292398,166.21489621489619L718.8998538011697,166.21489621489619L718.8998538011697,175.98290598290598L725.3033625730993,175.98290598290598L725.3033625730993,180.86691086691084L731.7068713450292,180.86691086691084L731.7068713450292,193.07692307692307L738.110380116959,193.07692307692307L738.110380116959,199.1819291819292L744.5138888888889,199.1819291819292L744.5138888888889,270L750.9173976608187,270L750.9173976608187,199.1819291819292L757.3209064327485,199.1819291819292L757.3209064327485,205.28693528693532L760.5226608187135,205.28693528693532"/></g><g aria-label="line" fill="none" stroke="#a2a5ba" stroke-width="1.5" stroke-linejoin="round" stroke-linecap="round" stroke-dasharray="2 2"><path d="M55.869883040935676,259.32445994215374L59.07163742690059,259.32445994215374L59.07163742690059,256.1616953527392L65.4751461988304,256.1616953527392L65.4751461988304,244.86299555270844L71.87865497076024,244.86299555270844L71.87865497076024,238.34042372010794L78.28216374269006,238.34042372010794L78.28216374269006,240.75571244527964L84.68567251461988,240.75571244527964L84.68567251461988,242.89374026729007L91.0891812865497,242.89374026729007L91.0891812865497,249.998934390096L97.49269005847954,249.998934390096L97.49269005847954,246.12604995728205L103.89619883040936,246.12604995728205L103.89619883040936,235.50019609965887L110.29970760233917,235.50019609965887L110.29970760233917,244.00403185849024L116.703216374269,244.00403185849024L116.703216374269,225.79576297757353L123.10672514619884,225.79576297757353L123.10672514619884,220.8913875910978L129.51023391812865,220.8913875910978L129.51023391812865,218.25779203438123L135.91374269005848,218.25779203438123L135.91374269005848,230.83263861864953L142.3172514619883,230.83263861864953L142.3172514619883,233.1577036916192L148.72076023391813,233.1577036916192L148.72076023391813,212.76104070803626L155.12426900584796,212.76104070803626L155.12426900584796,234.02058634839202L161.52777777777777,234.02058634839202L161.52777777777777,267.55799755799757L167.9312865497076,267.55799755799757L167.9312865497076,267.55799755799757L174.33479532163742,267.55799755799757L174.33479532163742,224.50185498526585L180.73830409356725,224.50185498526585L180.73830409356725,197.00258134943158L187.14181286549706,197.00258134943158L187.14181286549706,239.902066278135L193.5453216374269,239.902066278135L193.5453216374269,230.6659269989824L199.94883040935673,230.6659269989824L199.94883040935673,260.26178384013207L206.35233918128654,260.26178384013207L206.35233918128654,267.55799755799757L212.75584795321637,267.55799755799757L212.75584795321637,264.1029826995088L219.15935672514618,264.1029826995088L219.15935672514618,268.44424848870096L225.56286549707602,268.44424848870096L225.56286549707602,267.55799755799757L231.96637426900583,267.55799755799757L231.96637426900583,267.55799755799757L238.3698830409357,267.55799755799757L238.3698830409357,267.55799755799757L244.90679824561403,267.55799755799757L244.90679824561403,246.97381794905823L251.4437134502924,246.97381794905823L251.4437134502924,236.4838851958868L257.8472222222222,236.4838851958868L257.8472222222222,212.16864572083435L264.25073099415204,212.16864572083435L264.25073099415204,191.83011847690375L270.6542397660819,191.83011847690375L270.6542397660819,202.21448560065434L277.05774853801165,202.21448560065434L277.05774853801165,177.64808246832288L283.4612573099415,177.64808246832288L283.4612573099415,209.36742448423732L289.8647660818714,209.36742448423732L289.8647660818714,199.60715692311715L296.2682748538012,199.60715692311715L296.2682748538012,182.9687214456696L302.671783625731,182.9687214456696L302.671783625731,160.78566971192424L309.07529239766086,160.78566971192424L309.07529239766086,143.49948931254553L315.47880116959067,143.49948931254553L315.47880116959067,172.5548362261849L321.8823099415205,172.5548362261849L321.8823099415205,225.24157504425074L328.28581871345034,225.24157504425074L328.28581871345034,217.5359153033179L334.6893274853801,217.5359153033179L334.6893274853801,176.51044025909178L341.09283625730995,176.51044025909178L341.09283625730995,182.9360342532324L347.4963450292398,182.9360342532324L347.4963450292398,217.23664035653164L353.89985380116957,217.23664035653164L353.89985380116957,190.21167027763036L360.30336257309943,190.21167027763036L360.30336257309943,195.1188808878093L366.70687134502924,195.1188808878093L366.70687134502924,171.73198057425546L373.11038011695905,171.73198057425546L373.11038011695905,164.74603008668282L379.51388888888886,164.74603008668282L379.51388888888886,161.7322735877901L385.9173976608187,161.7322735877901L385.9173976608187,161.06943304819487L392.32090643274853,161.06943304819487L392.32090643274853,153.6801417161183L398.7244152046784,153.6801417161183L398.7244152046784,168.66710792885542L405.1279239766082,168.66710792885542L405.1279239766082,159.4132128352267L411.531432748538,159.4132128352267L411.531432748538,133.99426632193482L417.9349415204679,133.99426632193482L417.9349415204679,147.43766601038226L424.3384502923977,147.43766601038226L424.3384502923977,143.31954012084407L430.7419590643275,143.31954012084407L430.7419590643275,169.72553350769678L437.1454678362573,169.72553350769678L437.1454678362573,199.2282493530896L443.5489766081871,199.2282493530896L443.5489766081871,161.01114672257836L449.95248538011697,161.01114672257836L449.95248538011697,147.22903070864982L456.35599415204683,147.22903070864982L456.35599415204683,201.5501453293561L462.7595029239766,201.5501453293561L462.7595029239766,153.07817636628835L469.1630116959064,153.07817636628835L469.1630116959064,170.83057064434226L475.56652046783626,170.83057064434226L475.56652046783626,164.40180755349851L481.97002923976606,164.40180755349851L481.97002923976606,159.08975636711267L488.3735380116959,159.08975636711267L488.3735380116959,153.68789752137616L494.77704678362574,153.68789752137616L494.77704678362574,179.06531729812153L501.1805555555556,179.06531729812153L501.1805555555556,209.63385621368678L507.5840643274854,209.63385621368678L507.5840643274854,242.10179588201962L513.9875730994152,242.10179588201962L513.9875730994152,188.06730426221372L520.391081871345,188.06730426221372L520.391081871345,170.628109296313L526.7945906432749,170.628109296313L526.7945906432749,187.10077170057465L533.1980994152048,187.10077170057465L533.1980994152048,203.28258270930797L539.6016081871345,203.28258270930797L539.6016081871345,186.11722779671706L546.0051169590643,186.11722779671706L546.0051169590643,201.5086816653284L552.4086257309941,201.5086816653284L552.4086257309941,214.257133854298L558.812134502924,214.257133854298L558.812134502924,237.03631085717004L565.2156432748537,237.03631085717004L565.2156432748537,170.8276425135996L571.6191520467836,170.8276425135996L571.6191520467836,97.83780848774724L578.0226608187135,97.83780848774724L578.0226608187135,133.62911887757127L584.4261695906432,133.62911887757127L584.4261695906432,178.13889925477142L590.8296783625731,178.13889925477142L590.8296783625731,180.46146297703797L597.2331871345028,180.46146297703797L597.2331871345028,188.3926818484764L603.6366959064327,188.3926818484764L603.6366959064327,232.55079871290178L610.0402046783626,232.55079871290178L610.0402046783626,262.57926274114084L616.4437134502924,262.57926274114084L616.4437134502924,267.55799755799757L622.8472222222223,267.55799755799757L622.8472222222223,267.55799755799757L629.2507309941521,267.55799755799757L629.2507309941521,244.73439521333015L635.6542397660819,244.73439521333015L635.6542397660819,213.15987696383698L642.0577485380117,213.15987696383698L642.0577485380117,228.59279449647596L648.4612573099415,228.59279449647596L648.4612573099415,224.10526832701964L654.8647660818714,224.10526832701964L654.8647660818714,191.1220018715044L661.2682748538012,191.1220018715044L661.2682748538012,150.66438737281962L667.671783625731,150.66438737281962L667.671783625731,141.49612922283848L674.0752923976609,141.49612922283848L674.0752923976609,158.8209190152091L680.4788011695907,158.8209190152091L680.4788011695907,163.0012501929185L686.8823099415205,163.0012501929185L686.8823099415205,152.90131415143853L693.2858187134502,152.90131415143853L693.2858187134502,133.74177256624984L699.6893274853801,133.74177256624984L699.6893274853801,109.14518359218431L706.09283625731,109.14518359218431L706.09283625731,121.38097997797156L712.4963450292398,121.38097997797156L712.4963450292398,124.67758031398638L718.8998538011697,124.67758031398638L718.8998538011697,135.27466594172708L725.3033625730993,135.27466594172708L725.3033625730993,106.7371153967515L731.7068713450292,106.7371153967515L731.7068713450292,114.32231529311832L738.110380116959,114.32231529311832L738.110380116959,163.30310861025924L744.5138888888889,163.30310861025924L744.5138888888889,153.47618063638612L750.9173976608187,153.47618063638612L750.9173976608187,144.0283298658374L757.3209064327485,144.0283298658374L757.3209064327485,155.795991254801L760.5226608187135,155.795991254801"/></g><g aria-label="rule" stroke="currentColor"><line x1="50" x2="780" y1="270" y2="270"/></g><g aria-label="rule" stroke="gray"><line x1="56.40350877192983" x2="56.40350877192983" y1="270" y2="24.761904761904773"/></g><g aria-label="text" text-anchor="start"><text y="0.32em" transform="translate(56.40350877192983,20)">Installation new roof</text></g></svg>