<svg class="plot-353d72f15e03" fill="currentColor" font-family="system-ui, sans-serif" font-size="10" text-anchor="middle" width="800" height="300" viewBox="0 0 800 300" xmlns="http://www.w3.org/2000/svg" xmlns:xlink="http://www.w3.org/1999/xlink"><style>
        .plot-353d72f15e03 {
          display: block;
          background: white;
          height: auto;
          height: intrinsic;
          max-width: 100%;
        }
        .plot-353d72f15e03 text,
        .plot-353d72f15e03 tspan {
          white-space: pre;
        }
      </style><g aria-label="y-axis" transform="translate(50,0)" fill="none" text-anchor="end" font-variant="tabular-nums"><g class="tick" opacity="1" transform="translate(0,270)"><line stroke="currentColor" x2="-6"/><text fill="currentColor" x="-9" dy="0.32em">0</text></g><g class="tick" opacity="1" transform="translate(0,245.57997557997558)"><line stroke="currentColor" x2="-6"/><text fill="currentColor" x="-9" dy="0.32em">20</text></g><g class="tick" opacity="1" transform="translate(0,221.15995115995116)"><line stroke="currentColor" x2="-6"/><text fill="currentColor" x="-9" dy="0.32em">40</text></g><g class="tick" opacity="1" transform="translate(0,196.73992673992672)"><line stroke="currentColor" x2="-6"/><text fill="currentColor" x="-9" dy="0.32em">60</text></g><g class="tick" opacity="1" transform="translate(0,172.31990231990233)"><line stroke="currentColor" x2="-6"/><text fill="currentColor" x="-9" dy="0.32em">80</text></g><g class="tick" opacity="1" transform="translate(0,147.89987789987788)"><line stroke="currentColor" x2="-6"/><text fill="currentColor" x="-9" dy="0.32em">100</text></g><g class="tick" opacity="1" transform="translate(0,123.47985347985347)"><line stroke="currentColor" x2="-6"/><text fill="currentColor" x="-9" dy="0.32em">120</text></g><g class="tick" opacity="1" transform="translate(0,99.05982905982907)"><line stroke="currentColor" x2="-6"/><text fill="currentColor" x="-9" dy="0.32em">140</text></g><g class="tick" opacity="1" transform="translate(0,74.63980463980464)"><line stroke="currentColor" x2="-6"/><text fill="currentColor" x="-9" dy="0.32em">160</text></g><g class="tick" opacity="1" transform="translate(0,50.219780219780226)"><line stroke="currentColor" x2="-6"/><text fill="currentColor" x="-9" dy="0.32em">180</text></g><g class="tick" opacity="1" transform="translate(0,25.799755799755808)"><line stroke="currentColor" x2="-6"/><text fill="currentColor" x="-9" dy="0.32em">200</text></g></g><g aria-label="x-axis" transform="translate(0,270)" fill="none" text-anchor="middle" font-variant="tabular-nums"><g class="tick" opacity="1" transform="translate(50,0)"><line stroke="currentColor" y2="6"/><text fill="currentColor" y="9" dy="0.71em">October</text></g><g class="tick" opacity="1" transform="translate(174.34065934065933,0)"><line stroke="currentColor" y2="6"/><text fill="currentColor" y="9" dy="0.71em">November</text></g><g class="tick" opacity="1" transform="translate(294.67032967032964,0)"><line stroke="currentColor" y2="6"/><text fill="currentColor" y="9" dy="0.71em">December</text></g><g class="tick" opacity="1" transform="translate(419.010989010989,0)"><line stroke="currentColor" y2="6"/><text fill="currentColor" y="9" dy="0.71em">2021</text></g><g class="tick" opacity="1" transform="translate(543.3516483516485,0)"><line stroke="currentColor" y2="6"/><text fill="currentColor" y="9" dy="0.71em">February</text></g><g class="tick" opacity="1" transform="translate(655.6593406593407,0)"><line stroke="currentColor" y2="6"/><text fill="currentColor" y="9" dy="0.71em">March</text></g><g class="tick" opacity="1" transform="translate(780,0)"><line stroke="currentColor" y2="6"/><text fill="currentColor" y="9" dy="0.71em">April</text></g></g><g aria-label="line" fill="none" stroke="#5b6187" stroke-width="1.5" stroke-linejoin="round" stroke-linecap="round"><path d="M49.66575091575092,254.12698412698413L51.67124542124542,254.12698412698413L51.67124542124542,252.9059829059829L55.68223443223444,252.9059829059829L55.68223443223444,241.9169719169719L59.693223443223445,241.9169719169719L59.693223443223445,241.9169719169719L63.70421245421245,241.9169719169719L63.70421245421245,240.6959706959707L67.71520146520146,240.6959706959707L67.71520146520146,244.35897435897436L71.72619047619048,244.35897435897436L71.72619047619048,249.24297924297923L75.73717948717947,249.24297924297923L75.73717948717947,268.77899877899875L79.7481684981685,268.77899877899875L79.7481684981685,267.55799755799757L83.75915750915752,267.55799755799757L83.75915750915752,268.77899877899875L87.77014652014651,268.77899877899875L87.77014652014651,267.55799755799757L91.78113553113553,267.55799755799757L91.78113553113553,267.55799755799757L95.79212454212455,267.55799755799757L95.79212454212455,267.55799755799757L99.80311355311355,267.55799755799757L99.80311355311355,268.77899877899875L103.81410256410257,268.77899877899875L103.81410256410257,228.4859584859585L107.82509157509158,228.4859584859585L107.82509157509158,221.15995115995116L111.83608058608058,221.15995115995116L111.83608058608058,218.71794871794873L115.8470695970696,218.71794871794873L115.8470695970696,228.4859584859585L119.8580586080586,228.4859584859585L119.8580586080586,211.3919413919414L123.86904761904762,211.3919413919414L123.86904761904762,237.03296703296704L127.88003663003664,237.03296703296704L127.88003663003664,250.46398046398048L131.89102564102564,250.46398046398048L131.89102564102564,260.2319902319902L135.90201465201466,260.2319902319902L135.90201465201466,263.8949938949939L139.91300366300368,263.8949938949939L139.91300366300368,251.6849816849817L143.92399267399267,251.6849816849817L143.92399267399267,246.8009768009768L148.01854395604397,246.8009768009768L148.01854395604397,227.26495726495725L152.11309523809524,227.26495726495725L152.11309523809524,219.93894993894997L156.12408424908426,219.93894993894997L156.12408424908426,227.26495726495725L160.13507326007326,227.26495726495725L160.13507326007326,240.6959706959707L164.14606227106225,240.6959706959707L164.14606227106225,246.8009768009768L168.15705128205127,246.8009768009768L168.15705128205127,251.6849816849817L172.1680402930403,251.6849816849817L172.1680402930403,249.24297924297923L176.1790293040293,249.24297924297923L176.1790293040293,263.8949938949939L180.1900183150183,263.8949938949939L180.1900183150183,218.71794871794873L184.20100732600733,218.71794871794873L184.20100732600733,183.3089133089133L188.21199633699635,183.3089133089133L188.21199633699635,175.98290598290598L192.22298534798534,175.98290598290598L192.22298534798534,193.07692307692307L196.23397435897436,193.07692307692307L196.23397435897436,204.0659340659341L200.2449633699634,204.0659340659341L200.2449633699634,249.24297924297923L204.25595238095238,249.24297924297923L204.25595238095238,245.57997557997558L206.26144688644686,245.57997557997558M218.29441391941393,207.72893772893775L220.29990842490844,207.72893772893775L220.29990842490844,229.7069597069597L224.31089743589743,229.7069597069597L224.31089743589743,241.9169719169719L228.32188644688645,241.9169719169719L228.32188644688645,227.26495726495725L232.33287545787545,227.26495726495725L232.33287545787545,233.36996336996336L236.34386446886447,233.36996336996336L236.34386446886447,243.13797313797312L240.3548534798535,243.13797313797312L240.3548534798535,204.0659340659341L244.36584249084248,204.0659340659341L244.36584249084248,205.28693528693532L248.37683150183153,205.28693528693532L248.37683150183153,184.52991452991452L252.38782051282053,184.52991452991452L252.38782051282053,188.1929181929182L256.3988095238095,188.1929181929182L256.3988095238095,216.2759462759463L260.4097985347985,216.2759462759463L260.4097985347985,218.71794871794873L264.42078754578756,218.71794871794873L264.42078754578756,200.40293040293042L268.4317765567765,200.40293040293042L268.4317765567765,191.85592185592185L272.4427655677656,191.85592185592185L272.4427655677656,186.97191697191698L276.45375457875457,186.97191697191698L276.45375457875457,188.1929181929182L280.4647435897436,188.1929181929182L280.4647435897436,168.65689865689865L284.4757326007326,168.65689865689865L284.4757326007326,171.0989010989011L288.48672161172163,171.0989010989011L288.48672161172163,155.22588522588524L292.49771062271066,155.22588522588524L292.49771062271066,169.87789987789986L296.5086996336996,169.87789987789986L296.5086996336996,193.07692307692307L300.51968864468864,193.07692307692307L300.51968864468864,161.33089133089132L304.53067765567766,161.33089133089132L304.53067765567766,149.1208791208791L308.54166666666663,149.1208791208791L308.54166666666663,163.77289377289375L312.5526556776557,163.77289377289375L312.5526556776557,160.1098901098901L316.5636446886447,160.1098901098901L316.5636446886447,157.66788766788767L320.5746336996337,157.66788766788767L320.5746336996337,141.7948717948718L324.5856227106227,141.7948717948718L324.5856227106227,122.25885225885226L328.59661172161174,122.25885225885226L328.59661172161174,155.22588522588524L332.60760073260076,155.22588522588524L332.60760073260076,205.28693528693532L336.6185897435897,205.28693528693532L336.6185897435897,180.86691086691084L340.62957875457874,180.86691086691084L340.62957875457874,156.44688644688645L344.64056776556777,156.44688644688645L344.64056776556777,216.2759462759463L348.6515567765568,216.2759462759463L348.6515567765568,206.50793650793653L352.6625457875458,206.50793650793653L352.6625457875458,182.08791208791206L356.6735347985348,182.08791208791206L356.6735347985348,200.40293040293042L360.6845238095238,200.40293040293042L360.6845238095238,178.4249084249084L364.6955128205128,178.4249084249084L364.6955128205128,195.5189255189255L368.7065018315019,195.5189255189255L368.7065018315019,199.1819291819292L372.71749084249086,199.1819291819292L372.71749084249086,208.94993894993897L376.7284798534798,208.94993894993897L376.7284798534798,267.55799755799757L380.7394688644689,267.55799755799757L380.7394688644689,265.1159951159951L384.75045787545787,265.1159951159951L384.75045787545787,267.55799755799757L388.76144688644695,267.55799755799757L388.76144688644695,241.9169719169719L392.7724358974359,241.9169719169719L392.7724358974359,255.34798534798534L396.7834249084249,255.34798534798534L396.7834249084249,121.03785103785104L400.79441391941396,121.03785103785104L400.79441391941396,164.99389499389497L404.8054029304029,164.99389499389497L404.8054029304029,180.86691086691084L408.81639194139194,180.86691086691084L408.81639194139194,161.33089133089132L412.82738095238096,161.33089133089132L412.82738095238096,121.03785103785104L416.8383699633699,121.03785103785104L416.8383699633699,116.15384615384615L420.84935897435895,116.15384615384615L420.84935897435895,124.70085470085469L424.86034798534797,124.70085470085469L424.86034798534797,154.004884004884L428.87133699633705,154.004884004884L428.87133699633705,128.36385836385836L432.882326007326,128.36385836385836L432.882326007326,132.026862026862L436.893315018315,132.026862026862L436.893315018315,114.93284493284493L440.90430402930406,114.93284493284493L440.90430402930406,136.9108669108669L444.915293040293,136.9108669108669L444.915293040293,124.70085470085469L448.92628205128204,124.70085470085469L448.92628205128204,101.5018315018315L452.93727106227107,101.5018315018315L452.93727106227107,113.71184371184371L456.9482600732601,113.71184371184371L456.9482600732601,161.33089133089132L460.9592490842491,161.33089133089132L460.9592490842491,174.76190476190476L464.9702380952381,174.76190476190476L464.9702380952381,182.08791208791206L468.9812271062271,182.08791208791206L468.9812271062271,178.4249084249084L472.9922161172161,178.4249084249084L472.9922161172161,122.25885225885226L477.0032051282052,122.25885225885226L477.0032051282052,117.37484737484736L481.01419413919416,117.37484737484736L481.01419413919416,166.21489621489619L485.0251831501831,166.21489621489619L485.0251831501831,175.98290598290598L489.03617216117215,175.98290598290598L489.03617216117215,167.43589743589743L493.04716117216117,167.43589743589743L493.04716117216117,196.73992673992672L497.05815018315025,196.73992673992672L497.05815018315025,180.86691086691084L501.0691391941392,180.86691086691084L501.0691391941392,167.43589743589743L505.08012820512823,167.43589743589743L505.08012820512823,129.58485958485957L509.0911172161172,129.58485958485957L509.0911172161172,144.23687423687423L513.1021062271061,144.23687423687423L513.1021062271061,114.93284493284493L517.1130952380952,114.93284493284493L517.1130952380952,146.67887667887666L521.1240842490843,146.67887667887666L521.1240842490843,157.66788766788767L525.1350732600733,157.66788766788767L525.1350732600733,213.83394383394386L529.1460622710623,213.83394383394386L529.1460622710623,218.71794871794873L533.1570512820513,218.71794871794873L533.1570512820513,213.83394383394386L537.1680402930403,213.83394383394386L537.1680402930403,208.94993894993897L541.1790293040293,208.94993894993897L541.1790293040293,199.1819291819292L545.1900183150183,199.1819291819292L545.1900183150183,218.71794871794873L549.2010073260074,218.71794871794873L549.2010073260074,239.47496947496947L553.2119963369964,239.47496947496947L553.2119963369964,252.9059829059829L557.2229853479853,252.9059829059829L557.2229853479853,255.34798534798534L561.2339743589744,255.34798534798534L561.2339743589744,239.47496947496947L565.2449633699633,239.47496947496947L565.2449633699633,157.66788766788767L569.2559523809524,157.66788766788767L569.2559523809524,79.52380952380953L573.2669413919414,79.52380952380953L573.2669413919414,40.45177045177046L577.2779304029305,40.45177045177046L577.2779304029305,36.788766788766786L581.2889194139194,36.788766788766786L581.2889194139194,31.90476190476192L585.2999084249084,31.90476190476192L585.2999084249084,61.2087912087912L589.3108974358975,61.2087912087912L589.3108974358975,44.11477411477411L593.3218864468864,44.11477411477411L593.3218864468864,106.38583638583638L597.3328754578754,106.38583638583638L597.3328754578754,169.87789987789986L601.3438644688645,169.87789987789986L601.3438644688645,191.85592185592185L605.3548534798535,191.85592185592185L605.3548534798535,210.17094017094018L609.3658424908424,210.17094017094018L609.3658424908424,196.73992673992672L613.3768315018315,196.73992673992672L613.3768315018315,226.04395604395603L617.3878205128206,226.04395604395603L617.3878205128206,221.15995115995116L621.3988095238095,221.15995115995116L621.3988095238095,268.77899877899875L625.4097985347985,268.77899877899875L625.4097985347985,267.55799755799757L629.4207875457876,267.55799755799757L629.4207875457876,267.55799755799757L633.4317765567766,267.55799755799757L633.4317765567766,266.3369963369964L637.4427655677655,266.3369963369964L637.4427655677655,265.1159951159951L641.4537545787546,265.1159951159951L641.4537545787546,265.1159951159951L645.4647435897436,265.1159951159951L645.4647435897436,263.8949938949939L649.4757326007326,263.8949938949939L649.4757326007326,263.8949938949939L653.4867216117217,263.8949938949939L653.4867216117217,152.78388278388277L657.4977106227107,152.78388278388277L657.4977106227107,189.41391941391942L661.5086996336996,189.41391941391942L661.5086996336996,228.4859584859585L665.5196886446886,228.4859584859585L665.5196886446886,206.50793650793653L669.5306776556777,206.50793650793653L669.5306776556777,161.33089133089132L673.5416666666667,161.33089133089132L673.5416666666667,112.4908424908425L677.5526556776557,112.4908424908425L677.5526556776557,147.89987789987788L681.5636446886447,147.89987789987788L681.5636446886447,132.026862026862L685.5746336996338,132.026862026862L685.5746336996338,180.86691086691084L689.5856227106226,180.86691086691084L689.5856227106226,197.960927960928L693.5966117216117,197.960927960928L693.5966117216117,199.1819291819292L697.6076007326008,199.1819291819292L697.6076007326008,207.72893772893775L701.6185897435898,207.72893772893775L701.6185897435898,169.87789987789986L705.6295787545788,169.87789987789986L705.6295787545788,194.29792429792428L709.6405677655678,194.29792429792428L709.6405677655678,199.1819291819292L713.6515567765567,199.1819291819292L713.6515567765567,210.17094017094018L717.6625457875457,210.17094017094018L717.6625457875457,190.63492063492063L721.6735347985348,190.63492063492063L721.6735347985348,180.86691086691084L725.6845238095239,180.86691086691084L725.6845238095239,160.1098901098901L729.6955128205128,160.1098901098901L729.6955128205128,184.52991452991452L733.7065018315018,184.52991452991452L733.7065018315018,197.960927960928L737.7174908424909,197.960927960928L737.7174908424909,202.84493284493288L741.7284798534798,202.84493284493288L741.7284798534798,189.41391941391942L745.7394688644689,189.41391941391942L745.7394688644689,221.15995115995116L749.7504578754579,221.15995115995116L749.7504578754579,227.26495726495725L753.761446886447,227.26495726495725L753.761446886447,243.13797313797312L757.7724358974358,243.13797313797312L757.7724358974358,219.93894993894997L761.7834249084249,219.93894993894997L761.7834249084249,226.04395604395603L765.7108516483515,226.04395604395603L765.7108516483515,229.7069597069597L769.6382783882783,229.7069597069597L769.6382783882783,248.02197802197801L773.6492673992674,248.02197802197801L773.6492673992674,248.02197802197801L775.6547619047619,248.02197802197801"/></g><g aria-label="line" fill="none" stroke="#a2a5ba" stroke-width="1.5" stroke-linejoin="round" stroke-linecap="round" stroke-dasharray="2 2"><path d="M49.66575091575092,238.3133248552254L51.67124542124542,238.3133248552254L51.67124542124542,229.92322652392406L55.68223443223444,229.92322652392406L55.68223443223444,222.0301135391805L59.693223443223445,222.0301135391805L59.693223443223445,219.85239258532667L63.70421245421245,219.85239258532667L63.70421245421245,230.70730854315858L67.71520146520146,230.70730854315858L67.71520146520146,241.0962623754639L71.72619047619048,241.0962623754639L71.72619047619048,261.16561839449093L75.73717948717947,261.16561839449093L75.73717948717947,267.55799755799757L79.7481684981685,267.55799755799757L79.7481684981685,268.9419069748528L83.75915750915752,268.9419069748528L83.75915750915752,253.76097969160176L87.77014652014651,253.76097969160176L87.77014652014651,256.2690755395304L91.78113553113553,256.2690755395304L91.78113553113553,257.8045523855622L95.79212454212455,257.8045523855622L95.79212454212455,257.58616343416594L99.80311355311355,257.58616343416594L99.80311355311355,256.203531521359L103.81410256410257,256.203531521359L103.81410256410257,254.69231831650654L107.82509157509158,254.69231831650654L107.82509157509158,218.2102609774285L111.83608058608058,218.2102609774285L111.83608058608058,212.97200772717477L115.8470695970696,212.97200772717477L115.8470695970696,212.4980380432418L119.8580586080586,212.4980380432418L119.8580586080586,208.90141289458933L123.86904761904762,208.90141289458933L123.86904761904762,239.88482223010053L127.88003663003664,239.88482223010053L127.88003663003664,267.55799755799757L131.89102564102564,267.55799755799757L131.89102564102564,267.6126598534405L135.90201465201466,267.6126598534405L135.90201465201466,258.66954484111335L139.91300366300368,258.66954484111335L139.91300366300368,244.16696970797304L143.92399267399267,244.16696970797304L143.92399267399267,227.23426198514548L148.01854395604397,227.23426198514548L148.01854395604397,217.97169158711037L152.11309523809524,217.97169158711037L152.11309523809524,215.71867296542146L156.12408424908426,215.71867296542146L156.12408424908426,235.75060449749228L160.13507326007326,235.75060449749228L160.13507326007326,240.1656682228166L164.14606227106225,240.1656682228166L164.14606227106225,252.55689840597742L168.15705128205127,252.55689840597742L168.15705128205127,251.57618972582281L172.1680402930403,251.57618972582281L172.1680402930403,269.61893728670213L176.1790293040293,269.61893728670213L176.1790293040293,267.431544803036L180.1900183150183,267.431544803036L180.1900183150183,195.99268844654299L184.20100732600733,195.99268844654299L184.20100732600733,181.64637909647928L188.21199633699635,181.64637909647928L188.21199633699635,189.97451849916388L192.22298534798534,189.97451849916388L192.22298534798534,189.4649442792392L196.23397435897436,189.4649442792392L196.23397435897436,219.81728616203793L200.2449633699634,219.81728616203793L200.2449633699634,245.4460338357652L204.25595238095238,245.4460338357652L204.25595238095238,219.14206474550153L206.26144688644686,219.14206474550153M218.29441391941393,235.89963539821107L220.29990842490844,235.89963539821107L220.29990842490844,246.18190339830844L224.31089743589743,246.18190339830844L224.31089743589743,259.5766882909516L228.32188644688645,259.5766882909516L228.32188644688645,244.96672757742616L232.33287545787545,244.96672757742616L232.33287545787545,221.88885586032248L236.34386446886447,221.88885586032248L236.34386446886447,224.6883066100765L240.3548534798535,224.6883066100765L240.3548534798535,224.28254653472098L244.36584249084248,224.28254653472098L244.36584249084248,212.55982733856155L248.37683150183153,212.55982733856155L248.37683150183153,178.72651885278896L252.38782051282053,178.72651885278896L252.38782051282053,175.34753278968117L256.3988095238095,175.34753278968117L256.3988095238095,183.72820595072466L260.4097985347985,183.72820595072466L260.4097985347985,207.45407434290806L264.42078754578756,207.45407434290806L264.42078754578756,176.85415928597905L268.4317765567765,176.85415928597905L268.4317765567765,187.20125250873775L272.4427655677656,187.20125250873775L272.4427655677656,183.61780185960075L276.45375457875457,183.61780185960075L276.45375457875457,195.98459876828522L280.4647435897436,195.98459876828522L280.4647435897436,180.95894104270468L284.4757326007326,180.95894104270468L284.4757326007326,140.61481761199545L288.48672161172163,140.61481761199545L288.48672161172163,134.91501931147272L292.49771062271066,134.91501931147272L292.49771062271066,186.75530118883586L296.5086996336996,186.75530118883586L296.5086996336996,185.63467032182334L300.51968864468864,185.63467032182334L300.51968864468864,171.71897031444306L304.53067765567766,171.71897031444306L304.53067765567766,161.97442806766276L308.54166666666663,161.97442806766276L308.54166666666663,151.8705730636282L312.5526556776557,151.8705730636282L312.5526556776557,156.59816835510563L316.5636446886447,156.59816835510563L316.5636446886447,141.27315356288747L320.5746336996337,141.27315356288747L320.5746336996337,139.68130611579355L324.5856227106227,139.68130611579355L324.5856227106227,117.1619572874188L328.59661172161174,117.1619572874188L328.59661172161174,156.88043195967322L332.60760073260076,156.88043195967322L332.60760073260076,200.26691048586073L336.6185897435897,200.26691048586073L336.6185897435897,198.4140636119725L340.62957875457874,198.4140636119725L340.62957875457874,164.0917773380485L344.64056776556777,164.0917773380485L344.64056776556777,211.76582203636616L348.6515567765568,211.76582203636616L348.6515567765568,207.7842849972799L352.6625457875458,207.7842849972799L352.6625457875458,182.38418343090962L356.6735347985348,182.38418343090962L356.6735347985348,200.8080060395195L360.6845238095238,200.8080060395195L360.6845238095238,190.02880374237432L364.6955128205128,190.02880374237432L364.6955128205128,200.62197040756038L368.7065018315019,200.62197040756038L368.7065018315019,201.30615724478045L372.71749084249086,201.30615724478045L372.71749084249086,228.51456043775352L376.7284798534798,228.51456043775352L376.7284798534798,267.55799755799757L380.7394688644689,267.55799755799757L380.7394688644689,269.241674640748L384.75045787545787,269.241674640748L384.75045787545787,232.2523503582246L388.76144688644695,232.2523503582246L388.76144688644695,230.58736732740454L392.7724358974359,230.58736732740454L392.7724358974359,223.0791662330947L396.7834249084249,223.0791662330947L396.7834249084249,213.9851410594299L400.79441391941396,213.9851410594299L400.79441391941396,162.62808979655458L404.8054029304029,162.62808979655458L404.8054029304029,183.52313669121415L408.81639194139194,183.52313669121415L408.81639194139194,173.45882423305866L412.82738095238096,173.45882423305866L412.82738095238096,147.626952858896L416.8383699633699,147.626952858896L416.8383699633699,115.86654956340803L420.84935897435895,115.86654956340803L420.84935897435895,120.59881368329161L424.86034798534797,120.59881368329161L424.86034798534797,134.96580158498006L428.87133699633705,134.96580158498006L428.87133699633705,132.9361746160935L432.882326007326,132.9361746160935L432.882326007326,131.32514834907795L436.893315018315,131.32514834907795L436.893315018315,133.26029883020766L440.90430402930406,133.26029883020766L440.90430402930406,132.2522395320221L444.915293040293,132.2522395320221L444.915293040293,126.16219276665947L448.92628205128204,126.16219276665947L448.92628205128204,108.5369621687996L452.93727106227107,108.5369621687996L452.93727106227107,109.24074381879271L456.9482600732601,109.24074381879271L456.9482600732601,131.70614127695706L460.9592490842491,131.70614127695706L460.9592490842491,178.29082468884786L464.9702380952381,178.29082468884786L464.9702380952381,189.25647861080375L468.9812271062271,189.25647861080375L468.9812271062271,203.62488412434368L472.9922161172161,203.62488412434368L472.9922161172161,118.98670367742452L477.0032051282052,118.98670367742452L477.0032051282052,104.70852181608677L481.01419413919416,104.70852181608677L481.01419413919416,164.91913757868102L485.0251831501831,164.91913757868102L485.0251831501831,153.70457499059475L489.03617216117215,153.70457499059475L489.03617216117215,160.8115205982522L493.04716117216117,160.8115205982522L493.04716117216117,204.8016338392698L497.05815018315025,204.8016338392698L497.05815018315025,198.0384072584996L501.0691391941392,198.0384072584996L501.0691391941392,163.90215661653468L505.08012820512823,163.90215661653468L505.08012820512823,138.0418454918955L509.0911172161172,138.0418454918955L509.0911172161172,110.93557342475277L513.1021062271061,110.93557342475277L513.1021062271061,136.5271293173399L517.1130952380952,136.5271293173399L517.1130952380952,127.15432446147788L521.1240842490843,127.15432446147788L521.1240842490843,154.14377212423895L525.1350732600733,154.14377212423895L525.1350732600733,227.23000914959084L529.1460622710623,227.23000914959084L529.1460622710623,216.52110181887457L533.1570512820513,216.52110181887457L533.1570512820513,214.475881119621L537.1680402930403,214.475881119621L537.1680402930403,192.6645667767941L541.1790293040293,192.6645667767941L541.1790293040293,200.5449212548737L545.1900183150183,200.5449212548737L545.1900183150183,227.79603609042903L549.2010073260074,227.79603609042903L549.2010073260074,222.3700778432162L553.2119963369964,222.3700778432162L553.2119963369964,236.1335762224448L557.2229853479853,236.1335762224448L557.2229853479853,246.6429395486864L561.2339743589744,246.6429395486864L561.2339743589744,236.24723153012337L565.2449633699633,236.24723153012337L565.2449633699633,162.29654365018274L569.2559523809524,162.29654365018274L569.2559523809524,97.86049027737208L573.2669413919414,97.86049027737208L573.2669413919414,70.9064007910483L577.2779304029305,70.9064007910483L577.2779304029305,61.21088933292377L581.2889194139194,61.21088933292377L581.2889194139194,69.67711731776333L585.2999084249084,69.67711731776333L585.2999084249084,76.69992571347629L589.3108974358975,76.69992571347629L589.3108974358975,64.74747667110822L593.3218864468864,64.74747667110822L593.3218864468864,82.45300763820944L597.3328754578754,82.45300763820944L597.3328754578754,164.51863195788022L601.3438644688645,164.51863195788022L601.3438644688645,196.05380999586268L605.3548534798535,196.05380999586268L605.3548534798535,207.76051946880352L609.3658424908424,207.76051946880352L609.3658424908424,192.41849333436676L613.3768315018315,192.41849333436676L613.3768315018315,200.3101887072588L617.3878205128206,200.3101887072588L617.3878205128206,243.4068995767694L621.3988095238095,243.4068995767694L621.3988095238095,263.17207372119424L625.4097985347985,263.17207372119424L625.4097985347985,262.0383504745177L629.4207875457876,262.0383504745177L629.4207875457876,267.55799755799757L633.4317765567766,267.55799755799757L633.4317765567766,267.55799755799757L637.4427655677655,267.55799755799757L637.4427655677655,267.55799755799757L641.4537545787546,267.55799755799757L641.4537545787546,241.90533885439655L645.4647435897436,241.90533885439655L645.4647435897436,242.77888926638778L649.4757326007326,242.77888926638778L649.4757326007326,257.755762562867L653.4867216117217,257.755762562867L653.4867216117217,245.28458493079748L657.4977106227107,245.28458493079748L657.4977106227107,217.98586770562594L661.5086996336996,217.98586770562594L661.5086996336996,238.8433258736263L665.5196886446886,238.8433258736263L665.5196886446886,205.7528244236903L669.5306776556777,205.7528244236903L669.5306776556777,155.99945422183023L673.5416666666667,155.99945422183023L673.5416666666667,149.91616164272537L677.5526556776557,149.91616164272537L677.5526556776557,145.2752049138955L681.5636446886447,145.2752049138955L681.5636446886447,145.84056410873367L685.5746336996338,145.84056410873367L685.5746336996338,177.80468212439953L689.5856227106226,177.80468212439953L689.5856227106226,172.2550631666957L693.5966117216117,172.2550631666957L693.5966117216117,219.25384269175427L697.6076007326008,219.25384269175427L697.6076007326008,182.76942919434342L701.6185897435898,182.76942919434342L701.6185897435898,190.95164208976382L705.6295787545788,190.95164208976382L705.6295787545788,180.93509339437682L709.6405677655678,180.93509339437682L709.6405677655678,194.8979905857098L713.6515567765567,194.8979905857098L713.6515567765567,185.6147416360501L717.6625457875457,185.6147416360501L717.6625457875457,181.5451484224647L721.6735347985348,181.5451484224647L721.6735347985348,168.2412549280237L725.6845238095239,168.2412549280237L725.6845238095239,168.2462576294299L729.6955128205128,168.2462576294299L729.6955128205128,165.1982320865455L733.7065018315018,165.1982320865455L733.7065018315018,180.42126633889748L737.7174908424909,180.42126633889748L737.7174908424909,168.08915831962344L741.7284798534798,168.08915831962344L741.7284798534798,193.15671366164864L745.7394688644689,193.15671366164864L745.7394688644689,226.94174122461698L749.7504578754579,226.94174122461698L749.7504578754579,209.9541680260244L753.761446886447,209.9541680260244L753.761446886447,198.94623750167057L757.7724358974358,198.94623750167057L757.7724358974358,195.7896414723652L761.7834249084249,195.7896414723652L761.7834249084249,226.32067917471682L765.7108516483515,226.32067917471682L765.7108516483515,261.9848204907528L769.6382783882783,261.9848204907528L769.6382783882783,267.55799755799757L773.6492673992674,267.55799755799757L773.6492673992674,267.55799755799757L775.6547619047619,267.55799755799757"/></g><g aria-label="rule" stroke="currentColor"><line x1="50" x2="780" y1="270" y2="270"/></g><g aria-label="rule" stroke="gray"><line x1="599.5054945054944" x2="599.5054945054944" y1="270" y2="24.761904761904773"/></g><g aria-label="text" text-anchor="start"><text y="0.32em" transform="translate(599.5054945054944,20)">End training model</text></g></svg>