<svg class="plot-75bbcbfe89507" fill="currentColor" font-family="system-ui, sans-serif" font-size="10" text-anchor="middle" width="800" height="300" viewBox="0 0 800 300" xmlns="http://www.w3.org/2000/svg" xmlns:xlink="http://www.w3.org/1999/xlink"><style>
        .plot-75bbcbfe89507 {
          display: block;
          background: white;
          height: auto;
          height: intrinsic;
          max-width: 100%;
        }
        .plot-75bbcbfe89507 text,
        .plot-75bbcbfe89507 tspan {
          white-space: pre;
        }
      </style><g aria-label="y-axis" aria-description="↑ Energy (°Kwh)" transform="translate(40,0)" fill="none" text-anchor="end" font-variant="tabular-nums"><g class="tick" opacity="1" transform="translate(0,270)"><line stroke="currentColor" x2="-6"/><line stroke="currentColor" x2="740" stroke-opacity="0.1"/><text fill="currentColor" x="-9" dy="0.32em">0</text></g><g class="tick" opacity="1" transform="translate(0,244.35897435897436)"><line stroke="currentColor" x2="-6"/><line stroke="currentColor" x2="740" stroke-opacity="0.1"/><text fill="currentColor" x="-9" dy="0.32em">20</text></g><g class="tick" opacity="1" transform="translate(0,218.71794871794873)"><line stroke="currentColor" x2="-6"/><line stroke="currentColor" x2="740" stroke-opacity="0.1"/><text fill="currentColor" x="-9" dy="0.32em">40</text></g><g class="tick" opacity="1" transform="translate(0,193.07692307692307)"><line stroke="currentColor" x2="-6"/><line stroke="currentColor" x2="740" stroke-opacity="0.1"/><text fill="currentColor" x="-9" dy="0.32em">60</text></g><g class="tick" opacity="1" transform="translate(0,167.43589743589743)"><line stroke="currentColor" x2="-6"/><line stroke="currentColor" x2="740" stroke-opacity="0.1"/><text fill="currentColor" x="-9" dy="0.32em">80</text></g><g class="tick" opacity="1" transform="translate(0,141.7948717948718)"><line stroke="currentColor" x2="-6"/><line stroke="currentColor" x2="740" stroke-opacity="0.1"/><text fill="currentColor" x="-9" dy="0.32em">100</text></g><g class="tick" opacity="1" transform="translate(0,116.15384615384615)"><line stroke="currentColor" x2="-6"/><line stroke="currentColor" x2="740" stroke-opacity="0.1"/><text fill="currentColor" x="-9" dy="0.32em">120</text></g><g class="tick" opacity="1" transform="translate(0,90.51282051282051)"><line stroke="currentColor" x2="-6"/><line stroke="currentColor" x2="740" stroke-opacity="0.1"/><text fill="currentColor" x="-9" dy="0.32em">140</text></g><g class="tick" opacity="1" transform="translate(0,64.87179487179488)"><line stroke="currentColor" x2="-6"/><line stroke="currentColor" x2="740" stroke-opacity="0.1"/><text fill="currentColor" x="-9" dy="0.32em">160</text></g><g class="tick" opacity="1" transform="translate(0,39.23076923076922)"><line stroke="currentColor" x2="-6"/><line stroke="currentColor" x2="740" stroke-opacity="0.1"/><text fill="currentColor" x="-9" dy="0.32em">180</text></g><text fill="currentColor" transform="translate(-40,20)" dy="-1em" text-anchor="start">↑ Energy (°Kwh)</text></g><g aria-label="x-axis" transform="translate(0,270)" fill="none" text-anchor="middle" font-variant="tabular-nums"><g class="tick" opacity="1" transform="translate(40,0)"><line stroke="currentColor" y2="6"/><text fill="currentColor" y="9" dy="0.71em">October</text></g><g class="tick" opacity="1" transform="translate(148.2075471698113,0)"><line stroke="currentColor" y2="6"/><text fill="currentColor" y="9" dy="0.71em">November</text></g><g class="tick" opacity="1" transform="translate(252.9245283018868,0)"><line stroke="currentColor" y2="6"/><text fill="currentColor" y="9" dy="0.71em">December</text></g><g class="tick" opacity="1" transform="translate(361.1320754716981,0)"><line stroke="currentColor" y2="6"/><text fill="currentColor" y="9" dy="0.71em">2021</text></g><g class="tick" opacity="1" transform="translate(469.33962264150944,0)"><line stroke="currentColor" y2="6"/><text fill="currentColor" y="9" dy="0.71em">February</text></g><g class="tick" opacity="1" transform="translate(567.0754716981131,0)"><line stroke="currentColor" y2="6"/><text fill="currentColor" y="9" dy="0.71em">March</text></g><g class="tick" opacity="1" transform="translate(675.2830188679245,0)"><line stroke="currentColor" y2="6"/><text fill="currentColor" y="9" dy="0.71em">April</text></g><g class="tick" opacity="1" transform="translate(780,0)"><line stroke="currentColor" y2="6"/><text fill="currentColor" y="9" dy="0.71em">May</text></g></g><g aria-label="rect" fill="grey"><rect x="777.0094339622641" y="244.35897435897436" width="2.4905660377359027" height="25.641025641025635"/><rect x="773.5188679245283" y="244.35897435897436" width="2.490566037735789" height="25.641025641025635"/><rect x="770.0283018867924" y="245.64102564102566" width="2.4905660377359027" height="24.358974358974336"/><rect x="766.5377358490566" y="235.38461538461542" width="2.490566037735789" height="34.615384615384585"/><rect x="763.0471698113207" y="232.82051282051282" width="2.4905660377359027" height="37.17948717948718"/><rect x="759.5566037735849" y="225.1282051282051" width="2.490566037735789" height="44.87179487179489"/><rect x="756.066037735849" y="259.7435897435897" width="2.4905660377359027" height="10.256410256410277"/><rect x="752.5754716981131" y="267.43589743589746" width="2.4905660377359027" height="2.564102564102541"/><rect x="749.0849056603773" y="267.43589743589746" width="2.490566037735789" height="2.564102564102541"/><rect x="745.5943396226414" y="266.1538461538462" width="2.4905660377359027" height="3.846153846153811"/><rect x="742.1037735849056" y="267.43589743589746" width="2.490566037735789" height="2.564102564102541"/><rect x="738.6132075471698" y="267.43589743589746" width="2.490566037735789" height="2.564102564102541"/><rect x="735.122641509434" y="258.46153846153845" width="2.4905660377359027" height="11.538461538461547"/><rect x="731.6320754716982" y="258.46153846153845" width="2.490566037735789" height="11.538461538461547"/><rect x="728.1415094339623" y="264.87179487179486" width="2.4905660377359027" height="5.128205128205138"/><rect x="724.6509433962265" y="243.07692307692307" width="2.490566037735789" height="26.923076923076934"/><rect x="721.1603773584905" y="264.87179487179486" width="2.4905660377360164" height="5.128205128205138"/><rect x="717.6698113207548" y="184.1025641025641" width="2.4905660377356753" height="85.89743589743591"/><rect x="714.1792452830188" y="198.20512820512823" width="2.4905660377360164" height="71.79487179487177"/><rect x="710.6886792452831" y="184.1025641025641" width="2.4905660377356753" height="85.89743589743591"/><rect x="707.1981132075472" y="191.7948717948718" width="2.4905660377359027" height="78.2051282051282"/><rect x="703.7075471698114" y="216.15384615384616" width="2.490566037735789" height="53.84615384615384"/><rect x="700.2169811320755" y="199.48717948717947" width="2.4905660377359027" height="70.51282051282053"/><rect x="696.7264150943396" y="227.69230769230768" width="2.4905660377359027" height="42.30769230769232"/><rect x="693.2358490566038" y="220" width="2.490566037735789" height="50"/><rect x="689.7452830188679" y="239.23076923076923" width="2.4905660377359027" height="30.769230769230774"/><rect x="686.2547169811321" y="200.76923076923077" width="2.490566037735789" height="69.23076923076923"/><rect x="682.7641509433962" y="200.76923076923077" width="2.4905660377359027" height="69.23076923076923"/><rect x="679.2735849056604" y="214.87179487179486" width="2.490566037735789" height="55.12820512820514"/><rect x="675.7830188679245" y="264.87179487179486" width="2.4905660377359027" height="5.128205128205138"/><rect x="672.2924528301886" y="246.9230769230769" width="2.4905660377359027" height="23.076923076923094"/><rect x="668.8018867924528" y="246.9230769230769" width="2.490566037735789" height="23.076923076923094"/><rect x="665.3113207547169" y="227.69230769230768" width="2.4905660377359027" height="42.30769230769232"/><rect x="661.8207547169812" y="223.84615384615384" width="2.4905660377356753" height="46.15384615384616"/><rect x="658.3301886792452" y="217.43589743589743" width="2.4905660377360164" height="52.56410256410257"/><rect x="654.8396226415095" y="241.79487179487177" width="2.4905660377356753" height="28.205128205128233"/><rect x="651.3490566037735" y="225.1282051282051" width="2.4905660377360164" height="44.87179487179489"/><rect x="647.8584905660377" y="218.71794871794873" width="2.490566037735789" height="51.28205128205127"/><rect x="644.3679245283018" y="185.3846153846154" width="2.4905660377359027" height="84.61538461538461"/><rect x="640.877358490566" y="199.48717948717947" width="2.490566037735789" height="70.51282051282053"/><rect x="637.3867924528302" y="194.35897435897434" width="2.4905660377359027" height="75.64102564102566"/><rect x="633.8962264150944" y="180.25641025641025" width="2.490566037735789" height="89.74358974358975"/><rect x="630.4056603773586" y="154.6153846153846" width="2.490566037735789" height="115.38461538461539"/><rect x="626.9150943396227" y="176.4102564102564" width="2.4905660377359027" height="93.58974358974359"/><rect x="623.4245283018869" y="186.66666666666669" width="2.490566037735789" height="83.33333333333331"/><rect x="619.933962264151" y="207.17948717948718" width="2.4905660377359027" height="62.82051282051282"/><rect x="616.4433962264151" y="195.64102564102564" width="2.4905660377359027" height="74.35897435897436"/><rect x="612.9528301886793" y="190.51282051282053" width="2.490566037735789" height="79.48717948717947"/><rect x="609.4622641509434" y="164.87179487179486" width="2.4905660377359027" height="105.12820512820514"/><rect x="605.9716981132076" y="204.6153846153846" width="2.490566037735789" height="65.38461538461539"/><rect x="602.4811320754717" y="195.64102564102564" width="2.4905660377359027" height="74.35897435897436"/><rect x="598.9905660377359" y="194.35897435897434" width="2.490566037735789" height="75.64102564102566"/><rect x="595.5" y="176.4102564102564" width="2.4905660377359027" height="93.58974358974359"/><rect x="592.0094339622641" y="125.12820512820511" width="2.4905660377359027" height="144.8717948717949"/><rect x="588.5188679245283" y="141.7948717948718" width="2.490566037735789" height="128.2051282051282"/><rect x="585.0283018867924" y="104.61538461538461" width="2.4905660377359027" height="165.3846153846154"/><rect x="581.5377358490566" y="155.8974358974359" width="2.490566037735789" height="114.10256410256409"/><rect x="578.0471698113207" y="203.33333333333337" width="2.4905660377359027" height="66.66666666666663"/><rect x="574.5566037735849" y="226.41025641025638" width="2.490566037735789" height="43.58974358974362"/><rect x="571.066037735849" y="185.3846153846154" width="2.4905660377359027" height="84.61538461538461"/><rect x="567.5754716981131" y="146.9230769230769" width="2.4905660377359027" height="123.0769230769231"/><rect x="564.0849056603773" y="263.5897435897436" width="2.490566037735789" height="6.410256410256409"/><rect x="560.5943396226414" y="263.5897435897436" width="2.4905660377359027" height="6.410256410256409"/><rect x="557.1037735849056" y="264.87179487179486" width="2.490566037735789" height="5.128205128205138"/><rect x="553.6132075471698" y="264.87179487179486" width="2.490566037735789" height="5.128205128205138"/><rect x="550.122641509434" y="266.1538461538462" width="2.4905660377359027" height="3.846153846153811"/><rect x="546.6320754716982" y="267.43589743589746" width="2.490566037735789" height="2.564102564102541"/><rect x="543.1415094339623" y="267.43589743589746" width="2.4905660377359027" height="2.564102564102541"/><rect x="539.6509433962265" y="268.71794871794873" width="2.490566037735789" height="1.2820512820512704"/><rect x="536.1603773584905" y="218.71794871794873" width="2.4905660377360164" height="51.28205128205127"/><rect x="532.6698113207548" y="223.84615384615384" width="2.4905660377356753" height="46.15384615384616"/><rect x="529.1792452830188" y="193.07692307692307" width="2.4905660377360164" height="76.92307692307693"/><rect x="525.6886792452831" y="207.17948717948718" width="2.4905660377356753" height="62.82051282051282"/><rect x="522.1981132075472" y="187.94871794871796" width="2.4905660377359027" height="82.05128205128204"/><rect x="518.7075471698114" y="164.87179487179486" width="2.490566037735789" height="105.12820512820514"/><rect x="515.2169811320755" y="98.2051282051282" width="2.4905660377359027" height="171.7948717948718"/><rect x="511.72641509433964" y="32.82051282051283" width="2.490566037735846" height="237.17948717948718"/><rect x="508.23584905660374" y="50.769230769230774" width="2.4905660377359027" height="219.23076923076923"/><rect x="504.74528301886795" y="20" width="2.490566037735789" height="250"/><rect x="501.25471698113205" y="25.12820512820514" width="2.4905660377359027" height="244.87179487179486"/><rect x="497.76415094339626" y="28.97435897435897" width="2.490566037735789" height="241.02564102564102"/><rect x="494.27358490566036" y="69.99999999999999" width="2.4905660377359027" height="200"/><rect x="490.78301886792457" y="152.05128205128204" width="2.490566037735789" height="117.94871794871796"/><rect x="487.29245283018867" y="237.94871794871796" width="2.4905660377359027" height="32.051282051282044"/><rect x="483.8018867924529" y="254.6153846153846" width="2.490566037735789" height="15.384615384615387"/><rect x="480.311320754717" y="252.05128205128204" width="2.4905660377359027" height="17.948717948717956"/><rect x="476.8207547169811" y="237.94871794871796" width="2.490566037735846" height="32.051282051282044"/><rect x="473.3301886792452" y="216.15384615384616" width="2.4905660377359027" height="53.84615384615384"/><rect x="469.83962264150944" y="195.64102564102564" width="2.490566037735789" height="74.35897435897436"/><rect x="466.3490566037736" y="205.8974358974359" width="2.490566037735846" height="64.10256410256409"/><rect x="462.85849056603774" y="211.02564102564102" width="2.490566037735846" height="58.97435897435898"/><rect x="459.3679245283019" y="216.15384615384616" width="2.490566037735846" height="53.84615384615384"/><rect x="455.8773584905661" y="211.02564102564102" width="2.490566037735789" height="58.97435897435898"/><rect x="452.3867924528302" y="152.05128205128204" width="2.4905660377359027" height="117.94871794871796"/><rect x="448.89622641509436" y="140.5128205128205" width="2.490566037735846" height="129.4871794871795"/><rect x="445.40566037735846" y="107.17948717948717" width="2.4905660377359027" height="162.82051282051282"/><rect x="441.91509433962267" y="137.94871794871796" width="2.490566037735789" height="132.05128205128204"/><rect x="438.42452830188677" y="122.56410256410255" width="2.4905660377359027" height="147.43589743589746"/><rect x="434.933962264151" y="162.3076923076923" width="2.490566037735789" height="107.69230769230771"/><rect x="431.4433962264151" y="176.4102564102564" width="2.4905660377359027" height="93.58974358974359"/><rect x="427.9528301886793" y="193.07692307692307" width="2.490566037735789" height="76.92307692307693"/><rect x="424.4622641509434" y="162.3076923076923" width="2.4905660377359027" height="107.69230769230771"/><rect x="420.97169811320754" y="171.2820512820513" width="2.490566037735846" height="98.7179487179487"/><rect x="417.4811320754717" y="161.02564102564102" width="2.490566037735846" height="108.97435897435898"/><rect x="413.9905660377359" y="109.74358974358972" width="2.490566037735789" height="160.25641025641028"/><rect x="410.5" y="114.87179487179486" width="2.4905660377359027" height="155.12820512820514"/><rect x="407.00943396226415" y="173.84615384615384" width="2.490566037735846" height="96.15384615384616"/><rect x="403.5188679245283" y="177.69230769230768" width="2.490566037735846" height="92.30769230769232"/><rect x="400.02830188679246" y="170" width="2.490566037735846" height="100"/><rect x="396.5377358490566" y="155.8974358974359" width="2.490566037735846" height="114.10256410256409"/><rect x="393.0471698113207" y="105.8974358974359" width="2.4905660377359027" height="164.1025641025641"/><rect x="389.5566037735849" y="93.07692307692307" width="2.490566037735789" height="176.92307692307693"/><rect x="386.0660377358491" y="117.43589743589742" width="2.490566037735846" height="152.5641025641026"/><rect x="382.57547169811323" y="130.25641025641025" width="2.490566037735846" height="139.74358974358975"/><rect x="379.0849056603774" y="107.17948717948717" width="2.490566037735846" height="162.82051282051282"/><rect x="375.59433962264154" y="125.12820512820511" width="2.490566037735846" height="144.8717948717949"/><rect x="372.10377358490564" y="121.28205128205128" width="2.4905660377359027" height="148.71794871794873"/><rect x="368.6132075471698" y="148.2051282051282" width="2.490566037735846" height="121.7948717948718"/><rect x="365.12264150943395" y="117.43589743589742" width="2.490566037735846" height="152.5641025641026"/><rect x="361.6320754716981" y="108.46153846153845" width="2.490566037735846" height="161.53846153846155"/><rect x="358.14150943396226" y="113.58974358974359" width="2.490566037735846" height="156.4102564102564"/><rect x="354.6509433962264" y="155.8974358974359" width="2.490566037735846" height="114.10256410256409"/><rect x="351.1603773584906" y="176.4102564102564" width="2.490566037735789" height="93.58974358974359"/><rect x="347.6698113207548" y="159.74358974358975" width="2.490566037735846" height="110.25641025641025"/><rect x="344.1792452830189" y="113.58974358974359" width="2.4905660377359027" height="156.4102564102564"/><rect x="340.688679245283" y="254.6153846153846" width="2.490566037735846" height="15.384615384615387"/><rect x="337.1981132075472" y="240.51282051282053" width="2.490566037735846" height="29.487179487179475"/><rect x="333.70754716981133" y="267.43589743589746" width="2.490566037735846" height="2.564102564102541"/><rect x="330.2169811320755" y="264.87179487179486" width="2.490566037735846" height="5.128205128205138"/><rect x="326.72641509433964" y="267.43589743589746" width="2.490566037735846" height="2.564102564102541"/><rect x="323.2358490566038" y="205.8974358974359" width="2.490566037735846" height="64.10256410256409"/><rect x="319.74528301886795" y="195.64102564102564" width="2.490566037735846" height="74.35897435897436"/><rect x="316.25471698113205" y="191.7948717948718" width="2.4905660377359027" height="78.2051282051282"/><rect x="312.7641509433962" y="173.84615384615384" width="2.490566037735846" height="96.15384615384616"/><rect x="309.27358490566036" y="196.9230769230769" width="2.490566037735846" height="73.0769230769231"/><rect x="305.7830188679245" y="177.69230769230768" width="2.490566037735846" height="92.30769230769232"/><rect x="302.29245283018867" y="203.33333333333337" width="2.490566037735846" height="66.66666666666663"/><rect x="298.8018867924528" y="213.58974358974362" width="2.490566037735846" height="56.41025641025638"/><rect x="295.311320754717" y="150.76923076923075" width="2.490566037735846" height="119.23076923076925"/><rect x="291.8207547169811" y="176.4102564102564" width="2.490566037735846" height="93.58974358974359"/><rect x="288.3301886792452" y="202.05128205128207" width="2.4905660377359027" height="67.94871794871793"/><rect x="284.8396226415094" y="149.48717948717947" width="2.490566037735846" height="120.51282051282053"/><rect x="281.3490566037736" y="114.87179487179486" width="2.490566037735789" height="155.12820512820514"/><rect x="277.85849056603774" y="135.3846153846154" width="2.490566037735846" height="134.6153846153846"/><rect x="274.36792452830184" y="152.05128205128204" width="2.4905660377359027" height="117.94871794871796"/><rect x="270.87735849056605" y="154.6153846153846" width="2.490566037735789" height="115.38461538461539"/><rect x="267.3867924528302" y="158.46153846153848" width="2.490566037735846" height="111.53846153846152"/><rect x="263.89622641509436" y="143.0769230769231" width="2.490566037735846" height="126.9230769230769"/><rect x="260.40566037735846" y="155.8974358974359" width="2.4905660377359027" height="114.10256410256409"/><rect x="256.9150943396226" y="189.23076923076923" width="2.490566037735846" height="80.76923076923077"/><rect x="253.4245283018868" y="164.87179487179486" width="2.4905660377358174" height="105.12820512820514"/><rect x="249.93396226415095" y="149.48717948717947" width="2.490566037735846" height="120.51282051282053"/><rect x="246.4433962264151" y="166.15384615384613" width="2.490566037735846" height="103.84615384615387"/><rect x="242.95283018867923" y="163.5897435897436" width="2.4905660377358743" height="106.41025641025641"/><rect x="239.46226415094338" y="184.1025641025641" width="2.490566037735846" height="85.89743589743591"/><rect x="235.97169811320754" y="182.82051282051282" width="2.490566037735846" height="87.17948717948718"/><rect x="232.4811320754717" y="187.94871794871796" width="2.490566037735846" height="82.05128205128204"/><rect x="228.99056603773585" y="196.9230769230769" width="2.490566037735846" height="73.0769230769231"/><rect x="225.5" y="216.15384615384616" width="2.490566037735846" height="53.84615384615384"/><rect x="222.00943396226415" y="213.58974358974362" width="2.490566037735846" height="56.41025641025638"/><rect x="218.5188679245283" y="184.1025641025641" width="2.490566037735846" height="85.89743589743591"/><rect x="215.02830188679246" y="180.25641025641025" width="2.490566037735846" height="89.74358974358975"/><rect x="211.53773584905662" y="202.05128205128207" width="2.490566037735846" height="67.94871794871793"/><rect x="208.04716981132077" y="200.76923076923077" width="2.490566037735846" height="69.23076923076923"/><rect x="204.5566037735849" y="241.79487179487177" width="2.4905660377358743" height="28.205128205128233"/><rect x="201.06603773584905" y="231.53846153846152" width="2.490566037735846" height="38.46153846153848"/><rect x="197.5754716981132" y="225.1282051282051" width="2.490566037735846" height="44.87179487179489"/><rect x="194.0849056603774" y="240.51282051282053" width="2.4905660377358174" height="29.487179487179475"/><rect x="190.5943396226415" y="227.69230769230768" width="2.4905660377358743" height="42.30769230769232"/><rect x="187.10377358490567" y="204.6153846153846" width="2.490566037735846" height="65.38461538461539"/><rect x="183.61320754716982" y="243.07692307692307" width="2.490566037735846" height="26.923076923076934"/><rect x="180.12264150943395" y="246.9230769230769" width="2.4905660377358743" height="23.076923076923094"/><rect x="176.6320754716981" y="244.35897435897436" width="2.490566037735846" height="25.641025641025635"/><rect x="173.14150943396226" y="248.2051282051282" width="2.490566037735846" height="21.794871794871796"/><rect x="169.6509433962264" y="200.76923076923077" width="2.490566037735846" height="69.23076923076923"/><rect x="166.16037735849056" y="189.23076923076923" width="2.490566037735846" height="80.76923076923077"/><rect x="162.6698113207547" y="171.2820512820513" width="2.4905660377358743" height="98.7179487179487"/><rect x="159.17924528301887" y="178.97435897435895" width="2.4905660377358174" height="91.02564102564105"/><rect x="155.68867924528303" y="216.15384615384616" width="2.490566037735846" height="53.84615384615384"/><rect x="152.19811320754718" y="263.5897435897436" width="2.490566037735846" height="6.410256410256409"/><rect x="148.7075471698113" y="248.2051282051282" width="2.4905660377358743" height="21.794871794871796"/><rect x="145.2169811320755" y="250.7692307692308" width="2.4905660377358174" height="19.230769230769198"/><rect x="141.72641509433961" y="245.64102564102566" width="2.4905660377358743" height="24.358974358974336"/><rect x="138.23584905660377" y="239.23076923076923" width="2.490566037735846" height="30.769230769230774"/><rect x="134.74528301886792" y="225.1282051282051" width="2.490566037735846" height="44.87179487179489"/><rect x="131.25471698113208" y="217.43589743589743" width="2.490566037735846" height="52.56410256410257"/><rect x="127.76415094339623" y="225.1282051282051" width="2.490566037735846" height="44.87179487179489"/><rect x="124.27358490566039" y="245.64102564102566" width="2.490566037735846" height="24.358974358974336"/><rect x="120.78301886792453" y="250.7692307692308" width="2.49056603773586" height="19.230769230769198"/><rect x="117.2924528301887" y="263.5897435897436" width="2.4905660377358316" height="6.410256410256409"/><rect x="113.80188679245283" y="259.7435897435897" width="2.49056603773586" height="10.256410256410277"/><rect x="110.31132075471697" y="249.48717948717947" width="2.49056603773586" height="20.512820512820525"/><rect x="106.82075471698113" y="235.38461538461542" width="2.490566037735846" height="34.615384615384585"/><rect x="103.33018867924528" y="208.46153846153848" width="2.490566037735846" height="61.53846153846152"/><rect x="99.83962264150944" y="226.41025641025638" width="2.490566037735846" height="43.58974358974362"/><rect x="96.34905660377359" y="216.15384615384616" width="2.490566037735846" height="53.84615384615384"/><rect x="92.85849056603774" y="218.71794871794873" width="2.490566037735846" height="51.28205128205127"/><rect x="89.36792452830188" y="226.41025641025638" width="2.49056603773586" height="43.58974358974362"/><rect x="85.87735849056604" y="268.71794871794873" width="2.490566037735846" height="1.2820512820512704"/><rect x="82.38679245283019" y="267.43589743589746" width="2.490566037735846" height="2.564102564102541"/><rect x="78.89622641509433" y="267.43589743589746" width="2.49056603773586" height="2.564102564102541"/><rect x="75.40566037735849" y="267.43589743589746" width="2.490566037735846" height="2.564102564102541"/><rect x="71.91509433962264" y="268.71794871794873" width="2.490566037735846" height="1.2820512820512704"/><rect x="68.4245283018868" y="267.43589743589746" width="2.490566037735846" height="2.564102564102541"/><rect x="64.93396226415094" y="268.71794871794873" width="2.49056603773586" height="1.2820512820512704"/><rect x="61.44339622641509" y="248.2051282051282" width="2.490566037735846" height="21.794871794871796"/><rect x="57.95283018867924" y="243.07692307692307" width="2.490566037735846" height="26.923076923076934"/><rect x="54.4622641509434" y="239.23076923076923" width="2.490566037735846" height="30.769230769230774"/><rect x="50.971698113207545" y="240.51282051282053" width="2.490566037735853" height="29.487179487179475"/><rect x="47.4811320754717" y="240.51282051282053" width="2.490566037735846" height="29.487179487179475"/><rect x="43.990566037735846" y="252.05128205128204" width="2.490566037735853" height="17.948717948717956"/><rect x="40.5" y="253.33333333333334" width="2.490566037735846" height="16.666666666666657"/></g></svg>