<svg width="695" height="245" viewBox="0 0 695 245" fill="none" xmlns="http://www.w3.org/2000/svg">
<path d="M71 40V244H454" stroke="black" stroke-width="2"/>
<path d="M117 197C117 182.251 120.537 167.129 123.823 152.687C125.626 144.764 131.877 127.19 143.156 126.088C155.816 124.852 164.257 129.943 170.702 139.249C173.546 143.356 173.986 146.839 174.745 151.577C175.786 158.072 180.375 161.412 184.096 166.681C189.936 174.951 191.484 182.8 203.175 185.783C214.211 188.599 215.412 180.548 219.412 173.955C225.638 163.695 233.412 155.092 241.209 145.802C246.614 139.362 253.774 132.31 262.626 129.587C270.467 127.175 277.443 129.854 282.528 135.029C293.279 145.97 308.453 154.537 321.193 163.571C331.63 170.973 345.699 182.033 359.795 182.951C372.598 183.785 379.176 174.064 382.855 164.015C388.167 149.509 394.611 135.641 401.303 121.591C406.787 110.077 412.705 97.5481 420.889 87.2731C426.15 80.6675 430.596 77.1344 439.905 76.1116C441.846 75.8985 453.868 76.0561 446.792 76.0561" stroke="#5B6187" stroke-width="3" stroke-linecap="round" stroke-dasharray="7 7"/>
<path d="M117.5 195C117.5 182.72 120.283 171.313 123.25 159.444C124.322 155.157 125.625 150.923 127 146.722C128.374 142.524 130.837 138.915 132.5 134.889C134.186 130.807 136.309 127.23 140.75 125.75C143.835 124.722 149.706 123.044 152.5 125.528C159.931 132.133 165.03 140.926 170 149.389C172.995 154.489 175.071 160.097 177.472 165.5C179.238 169.472 180.449 174.179 183 177.722C185.461 181.14 188.622 183.877 192 186.389C195.944 189.321 200.134 188.647 204.5 186.889C210.292 184.556 215.988 178.636 220.25 174.167C225.714 168.436 228.322 161.068 233.25 155.028C239.557 147.296 247.923 140.31 256.222 134.778C259.339 132.7 261.186 131 265 131C269.366 131 274.708 131.96 278.5 134.278C281.759 136.269 284.583 138.719 288 140.5C293.601 143.419 297.373 148.005 302 152.111C311.95 160.94 322.273 169.671 333.75 176.472C342.253 181.511 354.503 175.037 362.778 172.889C375.332 169.629 382.276 159.388 388.056 148.472C392.844 139.428 399.433 129.793 407.278 123.111C411.024 119.92 415.723 116.323 420.222 114.306C424.344 112.458 428.787 113 433.194 113C436.221 113 439.722 112.492 442.611 113.389C444.033 113.83 447.384 115.347 448 113.5" stroke="#5B6187" stroke-width="3" stroke-linecap="round"/>
<path d="M396 39V243" stroke="#C4C4C4"/>
<path d="M327.846 3.78125V18H325.951L318.793 7.0332V18H316.908V3.78125H318.793L325.98 14.7773V3.78125H327.846ZM335.297 18.1953C334.561 18.1953 333.894 18.0716 333.295 17.8242C332.702 17.5703 332.191 17.2155 331.762 16.7598C331.339 16.304 331.013 15.7637 330.785 15.1387C330.557 14.5137 330.443 13.8301 330.443 13.0879V12.6777C330.443 11.8184 330.57 11.0534 330.824 10.3828C331.078 9.70573 331.423 9.13281 331.859 8.66406C332.296 8.19531 332.79 7.84049 333.344 7.59961C333.897 7.35872 334.47 7.23828 335.062 7.23828C335.818 7.23828 336.469 7.36849 337.016 7.62891C337.569 7.88932 338.021 8.25391 338.373 8.72266C338.725 9.1849 338.985 9.73177 339.154 10.3633C339.324 10.9883 339.408 11.6719 339.408 12.4141V13.2246H331.518V11.75H337.602V11.6133C337.576 11.1445 337.478 10.6888 337.309 10.2461C337.146 9.80339 336.885 9.4388 336.527 9.15234C336.169 8.86589 335.681 8.72266 335.062 8.72266C334.652 8.72266 334.275 8.81055 333.93 8.98633C333.585 9.1556 333.288 9.40951 333.041 9.74805C332.794 10.0866 332.602 10.5 332.465 10.9883C332.328 11.4766 332.26 12.0397 332.26 12.6777V13.0879C332.26 13.5892 332.328 14.0612 332.465 14.5039C332.608 14.9401 332.813 15.3242 333.08 15.6562C333.354 15.9883 333.682 16.2487 334.066 16.4375C334.457 16.6263 334.9 16.7207 335.395 16.7207C336.033 16.7207 336.573 16.5905 337.016 16.3301C337.458 16.0697 337.846 15.7214 338.178 15.2852L339.271 16.1543C339.044 16.4993 338.754 16.8281 338.402 17.1406C338.051 17.4531 337.618 17.707 337.104 17.9023C336.596 18.0977 335.993 18.1953 335.297 18.1953ZM344.193 16.125L346.908 7.43359H348.1L347.865 9.16211L345.102 18H343.939L344.193 16.125ZM342.367 7.43359L344.682 16.2227L344.848 18H343.627L340.561 7.43359H342.367ZM350.697 16.1543L352.904 7.43359H354.701L351.635 18H350.424L350.697 16.1543ZM348.363 7.43359L351.02 15.9785L351.322 18H350.17L347.328 9.14258L347.094 7.43359H348.363ZM363.324 9.09375V18H361.518V7.43359H363.275L363.324 9.09375ZM366.625 7.375L366.615 9.05469C366.465 9.02214 366.322 9.0026 366.186 8.99609C366.055 8.98307 365.906 8.97656 365.736 8.97656C365.32 8.97656 364.952 9.04167 364.633 9.17188C364.314 9.30208 364.044 9.48438 363.822 9.71875C363.601 9.95312 363.425 10.2331 363.295 10.5586C363.171 10.8776 363.09 11.2292 363.051 11.6133L362.543 11.9062C362.543 11.2682 362.605 10.6693 362.729 10.1094C362.859 9.54948 363.057 9.05469 363.324 8.625C363.591 8.1888 363.93 7.85026 364.34 7.60938C364.757 7.36198 365.251 7.23828 365.824 7.23828C365.954 7.23828 366.104 7.25456 366.273 7.28711C366.443 7.31315 366.56 7.34245 366.625 7.375ZM367.621 12.834V12.6094C367.621 11.8477 367.732 11.1413 367.953 10.4902C368.174 9.83268 368.493 9.26302 368.91 8.78125C369.327 8.29297 369.831 7.91536 370.424 7.64844C371.016 7.375 371.68 7.23828 372.416 7.23828C373.158 7.23828 373.826 7.375 374.418 7.64844C375.017 7.91536 375.525 8.29297 375.941 8.78125C376.365 9.26302 376.687 9.83268 376.908 10.4902C377.13 11.1413 377.24 11.8477 377.24 12.6094V12.834C377.24 13.5957 377.13 14.3021 376.908 14.9531C376.687 15.6042 376.365 16.1738 375.941 16.6621C375.525 17.1439 375.02 17.5215 374.428 17.7949C373.842 18.0618 373.178 18.1953 372.436 18.1953C371.693 18.1953 371.026 18.0618 370.434 17.7949C369.841 17.5215 369.333 17.1439 368.91 16.6621C368.493 16.1738 368.174 15.6042 367.953 14.9531C367.732 14.3021 367.621 13.5957 367.621 12.834ZM369.428 12.6094V12.834C369.428 13.3613 369.49 13.8594 369.613 14.3281C369.737 14.7904 369.923 15.2005 370.17 15.5586C370.424 15.9167 370.74 16.1999 371.117 16.4082C371.495 16.61 371.934 16.7109 372.436 16.7109C372.93 16.7109 373.363 16.61 373.734 16.4082C374.112 16.1999 374.424 15.9167 374.672 15.5586C374.919 15.2005 375.105 14.7904 375.229 14.3281C375.359 13.8594 375.424 13.3613 375.424 12.834V12.6094C375.424 12.0885 375.359 11.597 375.229 11.1348C375.105 10.666 374.916 10.2526 374.662 9.89453C374.415 9.52995 374.102 9.24349 373.725 9.03516C373.354 8.82682 372.917 8.72266 372.416 8.72266C371.921 8.72266 371.485 8.82682 371.107 9.03516C370.736 9.24349 370.424 9.52995 370.17 9.89453C369.923 10.2526 369.737 10.666 369.613 11.1348C369.49 11.597 369.428 12.0885 369.428 12.6094ZM379.027 12.834V12.6094C379.027 11.8477 379.138 11.1413 379.359 10.4902C379.581 9.83268 379.9 9.26302 380.316 8.78125C380.733 8.29297 381.238 7.91536 381.83 7.64844C382.423 7.375 383.087 7.23828 383.822 7.23828C384.564 7.23828 385.232 7.375 385.824 7.64844C386.423 7.91536 386.931 8.29297 387.348 8.78125C387.771 9.26302 388.093 9.83268 388.314 10.4902C388.536 11.1413 388.646 11.8477 388.646 12.6094V12.834C388.646 13.5957 388.536 14.3021 388.314 14.9531C388.093 15.6042 387.771 16.1738 387.348 16.6621C386.931 17.1439 386.426 17.5215 385.834 17.7949C385.248 18.0618 384.584 18.1953 383.842 18.1953C383.1 18.1953 382.432 18.0618 381.84 17.7949C381.247 17.5215 380.74 17.1439 380.316 16.6621C379.9 16.1738 379.581 15.6042 379.359 14.9531C379.138 14.3021 379.027 13.5957 379.027 12.834ZM380.834 12.6094V12.834C380.834 13.3613 380.896 13.8594 381.02 14.3281C381.143 14.7904 381.329 15.2005 381.576 15.5586C381.83 15.9167 382.146 16.1999 382.523 16.4082C382.901 16.61 383.34 16.7109 383.842 16.7109C384.337 16.7109 384.77 16.61 385.141 16.4082C385.518 16.1999 385.831 15.9167 386.078 15.5586C386.326 15.2005 386.511 14.7904 386.635 14.3281C386.765 13.8594 386.83 13.3613 386.83 12.834V12.6094C386.83 12.0885 386.765 11.597 386.635 11.1348C386.511 10.666 386.322 10.2526 386.068 9.89453C385.821 9.52995 385.508 9.24349 385.131 9.03516C384.76 8.82682 384.324 8.72266 383.822 8.72266C383.327 8.72266 382.891 8.82682 382.514 9.03516C382.143 9.24349 381.83 9.52995 381.576 9.89453C381.329 10.2526 381.143 10.666 381.02 11.1348C380.896 11.597 380.834 12.0885 380.834 12.6094ZM393.607 18H391.801V6.32031C391.801 5.55859 391.938 4.91732 392.211 4.39648C392.491 3.86914 392.891 3.47201 393.412 3.20508C393.933 2.93164 394.551 2.79492 395.268 2.79492C395.476 2.79492 395.684 2.80794 395.893 2.83398C396.107 2.86003 396.316 2.89909 396.518 2.95117L396.42 4.42578C396.283 4.39323 396.127 4.37044 395.951 4.35742C395.782 4.3444 395.613 4.33789 395.443 4.33789C395.059 4.33789 394.727 4.41602 394.447 4.57227C394.174 4.72201 393.965 4.94336 393.822 5.23633C393.679 5.5293 393.607 5.89062 393.607 6.32031V18ZM395.854 7.43359V8.82031H390.131V7.43359H395.854ZM404.789 7.43359V18H402.973V7.43359H404.789ZM402.836 4.63086C402.836 4.33789 402.924 4.09049 403.1 3.88867C403.282 3.68685 403.549 3.58594 403.9 3.58594C404.245 3.58594 404.509 3.68685 404.691 3.88867C404.88 4.09049 404.975 4.33789 404.975 4.63086C404.975 4.91081 404.88 5.15169 404.691 5.35352C404.509 5.54883 404.245 5.64648 403.9 5.64648C403.549 5.64648 403.282 5.54883 403.1 5.35352C402.924 5.15169 402.836 4.91081 402.836 4.63086ZM409.496 9.68945V18H407.689V7.43359H409.398L409.496 9.68945ZM409.066 12.3164L408.314 12.2871C408.321 11.5645 408.428 10.8971 408.637 10.2852C408.845 9.66667 409.138 9.12956 409.516 8.67383C409.893 8.2181 410.342 7.86654 410.863 7.61914C411.391 7.36523 411.973 7.23828 412.611 7.23828C413.132 7.23828 413.601 7.3099 414.018 7.45312C414.434 7.58984 414.789 7.8112 415.082 8.11719C415.382 8.42318 415.609 8.82031 415.766 9.30859C415.922 9.79036 416 10.3796 416 11.0762V18H414.184V11.0566C414.184 10.5033 414.102 10.0605 413.939 9.72852C413.777 9.38997 413.539 9.14583 413.227 8.99609C412.914 8.83984 412.53 8.76172 412.074 8.76172C411.625 8.76172 411.215 8.85612 410.844 9.04492C410.479 9.23372 410.163 9.49414 409.896 9.82617C409.636 10.1582 409.431 10.5391 409.281 10.9688C409.138 11.3919 409.066 11.8411 409.066 12.3164ZM424.896 15.1973C424.896 14.9368 424.838 14.696 424.721 14.4746C424.61 14.2467 424.379 14.0417 424.027 13.8594C423.682 13.6706 423.161 13.5078 422.465 13.3711C421.879 13.2474 421.348 13.1009 420.873 12.9316C420.404 12.7624 420.004 12.5573 419.672 12.3164C419.346 12.0755 419.096 11.7923 418.92 11.4668C418.744 11.1413 418.656 10.7604 418.656 10.3242C418.656 9.90755 418.747 9.51367 418.93 9.14258C419.118 8.77148 419.382 8.44271 419.721 8.15625C420.066 7.86979 420.479 7.64518 420.961 7.48242C421.443 7.31966 421.98 7.23828 422.572 7.23828C423.419 7.23828 424.141 7.38802 424.74 7.6875C425.339 7.98698 425.798 8.38737 426.117 8.88867C426.436 9.38346 426.596 9.93359 426.596 10.5391H424.789C424.789 10.2461 424.701 9.96289 424.525 9.68945C424.356 9.40951 424.105 9.17839 423.773 8.99609C423.448 8.8138 423.048 8.72266 422.572 8.72266C422.071 8.72266 421.664 8.80078 421.352 8.95703C421.046 9.10677 420.821 9.29883 420.678 9.5332C420.541 9.76758 420.473 10.015 420.473 10.2754C420.473 10.4707 420.505 10.6465 420.57 10.8027C420.642 10.9525 420.766 11.0924 420.941 11.2227C421.117 11.3464 421.365 11.4635 421.684 11.5742C422.003 11.6849 422.41 11.7956 422.904 11.9062C423.77 12.1016 424.483 12.3359 425.043 12.6094C425.603 12.8828 426.02 13.2181 426.293 13.6152C426.566 14.0124 426.703 14.4941 426.703 15.0605C426.703 15.5228 426.605 15.946 426.41 16.3301C426.221 16.7142 425.945 17.0462 425.58 17.3262C425.222 17.5996 424.792 17.8145 424.291 17.9707C423.796 18.1204 423.24 18.1953 422.621 18.1953C421.69 18.1953 420.902 18.0293 420.258 17.6973C419.613 17.3652 419.125 16.9355 418.793 16.4082C418.461 15.8809 418.295 15.3242 418.295 14.7383H420.111C420.137 15.2331 420.281 15.627 420.541 15.9199C420.801 16.2064 421.12 16.4115 421.498 16.5352C421.876 16.6523 422.25 16.7109 422.621 16.7109C423.116 16.7109 423.529 16.6458 423.861 16.5156C424.2 16.3854 424.457 16.2064 424.633 15.9785C424.809 15.7507 424.896 15.4902 424.896 15.1973ZM433.5 7.43359V8.82031H427.787V7.43359H433.5ZM429.721 4.86523H431.527V15.3828C431.527 15.7409 431.583 16.0111 431.693 16.1934C431.804 16.3757 431.947 16.4961 432.123 16.5547C432.299 16.6133 432.488 16.6426 432.689 16.6426C432.839 16.6426 432.995 16.6296 433.158 16.6035C433.327 16.571 433.454 16.5449 433.539 16.5254L433.549 18C433.406 18.0456 433.217 18.0879 432.982 18.127C432.755 18.1725 432.478 18.1953 432.152 18.1953C431.71 18.1953 431.303 18.1074 430.932 17.9316C430.561 17.7559 430.264 17.4629 430.043 17.0527C429.828 16.6361 429.721 16.0762 429.721 15.373V4.86523ZM441.85 16.1934V10.7539C441.85 10.3372 441.765 9.97591 441.596 9.66992C441.433 9.35742 441.186 9.11654 440.854 8.94727C440.521 8.77799 440.111 8.69336 439.623 8.69336C439.167 8.69336 438.767 8.77148 438.422 8.92773C438.083 9.08398 437.816 9.28906 437.621 9.54297C437.432 9.79688 437.338 10.0703 437.338 10.3633H435.531C435.531 9.98568 435.629 9.61133 435.824 9.24023C436.02 8.86914 436.299 8.53385 436.664 8.23438C437.035 7.92839 437.478 7.6875 437.992 7.51172C438.513 7.32943 439.092 7.23828 439.73 7.23828C440.499 7.23828 441.176 7.36849 441.762 7.62891C442.354 7.88932 442.816 8.2832 443.148 8.81055C443.487 9.33138 443.656 9.98568 443.656 10.7734V15.6953C443.656 16.0469 443.686 16.4212 443.744 16.8184C443.809 17.2155 443.904 17.5573 444.027 17.8438V18H442.143C442.051 17.7917 441.98 17.515 441.928 17.1699C441.876 16.8184 441.85 16.4928 441.85 16.1934ZM442.162 11.5938L442.182 12.8633H440.355C439.841 12.8633 439.382 12.9056 438.979 12.9902C438.575 13.0684 438.236 13.1888 437.963 13.3516C437.689 13.5143 437.481 13.7194 437.338 13.9668C437.195 14.2077 437.123 14.4909 437.123 14.8164C437.123 15.1484 437.198 15.4512 437.348 15.7246C437.497 15.998 437.722 16.2161 438.021 16.3789C438.327 16.5352 438.702 16.6133 439.145 16.6133C439.698 16.6133 440.186 16.4961 440.609 16.2617C441.033 16.0273 441.368 15.7409 441.615 15.4023C441.869 15.0638 442.006 14.735 442.025 14.416L442.797 15.2852C442.751 15.5586 442.628 15.8613 442.426 16.1934C442.224 16.5254 441.954 16.8444 441.615 17.1504C441.283 17.4499 440.886 17.7005 440.424 17.9023C439.968 18.0977 439.454 18.1953 438.881 18.1953C438.165 18.1953 437.536 18.0553 436.996 17.7754C436.462 17.4954 436.046 17.1211 435.746 16.6523C435.453 16.1771 435.307 15.6465 435.307 15.0605C435.307 14.4941 435.417 13.9961 435.639 13.5664C435.86 13.1302 436.179 12.7689 436.596 12.4824C437.012 12.1895 437.514 11.9681 438.1 11.8184C438.686 11.6686 439.34 11.5938 440.062 11.5938H442.162ZM448.461 3V18H446.645V3H448.461ZM453.324 3V18H451.508V3H453.324ZM460.609 18.1953C459.874 18.1953 459.206 18.0716 458.607 17.8242C458.015 17.5703 457.504 17.2155 457.074 16.7598C456.651 16.304 456.326 15.7637 456.098 15.1387C455.87 14.5137 455.756 13.8301 455.756 13.0879V12.6777C455.756 11.8184 455.883 11.0534 456.137 10.3828C456.391 9.70573 456.736 9.13281 457.172 8.66406C457.608 8.19531 458.103 7.84049 458.656 7.59961C459.21 7.35872 459.783 7.23828 460.375 7.23828C461.13 7.23828 461.781 7.36849 462.328 7.62891C462.882 7.88932 463.334 8.25391 463.686 8.72266C464.037 9.1849 464.298 9.73177 464.467 10.3633C464.636 10.9883 464.721 11.6719 464.721 12.4141V13.2246H456.83V11.75H462.914V11.6133C462.888 11.1445 462.79 10.6888 462.621 10.2461C462.458 9.80339 462.198 9.4388 461.84 9.15234C461.482 8.86589 460.993 8.72266 460.375 8.72266C459.965 8.72266 459.587 8.81055 459.242 8.98633C458.897 9.1556 458.601 9.40951 458.354 9.74805C458.106 10.0866 457.914 10.5 457.777 10.9883C457.641 11.4766 457.572 12.0397 457.572 12.6777V13.0879C457.572 13.5892 457.641 14.0612 457.777 14.5039C457.921 14.9401 458.126 15.3242 458.393 15.6562C458.666 15.9883 458.995 16.2487 459.379 16.4375C459.77 16.6263 460.212 16.7207 460.707 16.7207C461.345 16.7207 461.885 16.5905 462.328 16.3301C462.771 16.0697 463.158 15.7214 463.49 15.2852L464.584 16.1543C464.356 16.4993 464.066 16.8281 463.715 17.1406C463.363 17.4531 462.93 17.707 462.416 17.9023C461.908 18.0977 461.306 18.1953 460.609 18.1953ZM473.49 15.9492V3H475.307V18H473.646L473.49 15.9492ZM466.381 12.834V12.6289C466.381 11.8216 466.479 11.0892 466.674 10.4316C466.876 9.76758 467.159 9.19792 467.523 8.72266C467.895 8.2474 468.334 7.88281 468.842 7.62891C469.356 7.36849 469.929 7.23828 470.561 7.23828C471.225 7.23828 471.804 7.35547 472.299 7.58984C472.8 7.81771 473.223 8.15299 473.568 8.5957C473.92 9.0319 474.197 9.55924 474.398 10.1777C474.6 10.7962 474.74 11.4961 474.818 12.2773V13.1758C474.747 13.9505 474.607 14.6471 474.398 15.2656C474.197 15.8841 473.92 16.4115 473.568 16.8477C473.223 17.2839 472.8 17.6191 472.299 17.8535C471.798 18.0814 471.212 18.1953 470.541 18.1953C469.923 18.1953 469.356 18.0618 468.842 17.7949C468.334 17.528 467.895 17.1536 467.523 16.6719C467.159 16.1901 466.876 15.6237 466.674 14.9727C466.479 14.3151 466.381 13.6022 466.381 12.834ZM468.197 12.6289V12.834C468.197 13.3613 468.249 13.8561 468.354 14.3184C468.464 14.7806 468.633 15.1875 468.861 15.5391C469.089 15.8906 469.379 16.1673 469.73 16.3691C470.082 16.5645 470.502 16.6621 470.99 16.6621C471.589 16.6621 472.081 16.5352 472.465 16.2812C472.855 16.0273 473.168 15.6921 473.402 15.2754C473.637 14.8587 473.819 14.4062 473.949 13.918V11.5645C473.871 11.2064 473.757 10.8613 473.607 10.5293C473.464 10.1908 473.275 9.89128 473.041 9.63086C472.813 9.36393 472.53 9.15234 472.191 8.99609C471.859 8.83984 471.465 8.76172 471.01 8.76172C470.515 8.76172 470.089 8.86589 469.73 9.07422C469.379 9.27604 469.089 9.55599 468.861 9.91406C468.633 10.2656 468.464 10.6758 468.354 11.1445C468.249 11.6068 468.197 12.1016 468.197 12.6289Z" fill="black"/>
<path d="M11.0273 142.467V144H3.49805V142.467H11.0273ZM3.87891 129.781V144H1.99414V129.781H3.87891ZM10.0312 135.895V137.428H3.49805V135.895H10.0312ZM10.9297 129.781V131.324H3.49805V129.781H10.9297ZM14.8945 135.689V144H13.0879V133.434H14.7969L14.8945 135.689ZM14.4648 138.316L13.7129 138.287C13.7194 137.564 13.8268 136.897 14.0352 136.285C14.2435 135.667 14.5365 135.13 14.9141 134.674C15.2917 134.218 15.7409 133.867 16.2617 133.619C16.7891 133.365 17.3717 133.238 18.0098 133.238C18.5306 133.238 18.9993 133.31 19.416 133.453C19.8327 133.59 20.1875 133.811 20.4805 134.117C20.7799 134.423 21.0078 134.82 21.1641 135.309C21.3203 135.79 21.3984 136.38 21.3984 137.076V144H19.582V137.057C19.582 136.503 19.5007 136.061 19.3379 135.729C19.1751 135.39 18.9375 135.146 18.625 134.996C18.3125 134.84 17.9284 134.762 17.4727 134.762C17.0234 134.762 16.6133 134.856 16.2422 135.045C15.8776 135.234 15.5618 135.494 15.2949 135.826C15.0345 136.158 14.8294 136.539 14.6797 136.969C14.5365 137.392 14.4648 137.841 14.4648 138.316ZM28.5273 144.195C27.7917 144.195 27.1243 144.072 26.5254 143.824C25.9329 143.57 25.4219 143.215 24.9922 142.76C24.569 142.304 24.2435 141.764 24.0156 141.139C23.7878 140.514 23.6738 139.83 23.6738 139.088V138.678C23.6738 137.818 23.8008 137.053 24.0547 136.383C24.3086 135.706 24.6536 135.133 25.0898 134.664C25.526 134.195 26.0208 133.84 26.5742 133.6C27.1276 133.359 27.7005 133.238 28.293 133.238C29.0482 133.238 29.6992 133.368 30.2461 133.629C30.7995 133.889 31.252 134.254 31.6035 134.723C31.9551 135.185 32.2155 135.732 32.3848 136.363C32.554 136.988 32.6387 137.672 32.6387 138.414V139.225H24.748V137.75H30.832V137.613C30.806 137.145 30.7083 136.689 30.5391 136.246C30.3763 135.803 30.1159 135.439 29.7578 135.152C29.3997 134.866 28.9115 134.723 28.293 134.723C27.8828 134.723 27.5052 134.811 27.1602 134.986C26.8151 135.156 26.5189 135.41 26.2715 135.748C26.0241 136.087 25.832 136.5 25.6953 136.988C25.5586 137.477 25.4902 138.04 25.4902 138.678V139.088C25.4902 139.589 25.5586 140.061 25.6953 140.504C25.8385 140.94 26.0436 141.324 26.3105 141.656C26.584 141.988 26.9128 142.249 27.2969 142.438C27.6875 142.626 28.1302 142.721 28.625 142.721C29.263 142.721 29.8034 142.59 30.2461 142.33C30.6888 142.07 31.0762 141.721 31.4082 141.285L32.502 142.154C32.2741 142.499 31.9844 142.828 31.6328 143.141C31.2812 143.453 30.8483 143.707 30.334 143.902C29.8262 144.098 29.224 144.195 28.5273 144.195ZM36.5547 135.094V144H34.748V133.434H36.5059L36.5547 135.094ZM39.8555 133.375L39.8457 135.055C39.696 135.022 39.5527 135.003 39.416 134.996C39.2858 134.983 39.1361 134.977 38.9668 134.977C38.5501 134.977 38.1823 135.042 37.8633 135.172C37.5443 135.302 37.2741 135.484 37.0527 135.719C36.8314 135.953 36.6556 136.233 36.5254 136.559C36.4017 136.878 36.3203 137.229 36.2812 137.613L35.7734 137.906C35.7734 137.268 35.8353 136.669 35.959 136.109C36.0892 135.549 36.2878 135.055 36.5547 134.625C36.8216 134.189 37.1602 133.85 37.5703 133.609C37.987 133.362 38.4818 133.238 39.0547 133.238C39.1849 133.238 39.3346 133.255 39.5039 133.287C39.6732 133.313 39.7904 133.342 39.8555 133.375ZM48.1758 133.434H49.8164V143.775C49.8164 144.706 49.6276 145.501 49.25 146.158C48.8724 146.816 48.3451 147.314 47.668 147.652C46.9974 147.997 46.2227 148.17 45.3438 148.17C44.9792 148.17 44.5495 148.111 44.0547 147.994C43.5664 147.883 43.0846 147.691 42.6094 147.418C42.1406 147.151 41.7467 146.79 41.4277 146.334L42.375 145.26C42.8177 145.794 43.2799 146.165 43.7617 146.373C44.25 146.581 44.7318 146.686 45.207 146.686C45.7799 146.686 46.2747 146.578 46.6914 146.363C47.1081 146.148 47.4303 145.829 47.6582 145.406C47.8926 144.99 48.0098 144.475 48.0098 143.863V135.758L48.1758 133.434ZM40.9004 138.834V138.629C40.9004 137.822 40.9948 137.089 41.1836 136.432C41.3789 135.768 41.6556 135.198 42.0137 134.723C42.3783 134.247 42.8177 133.883 43.332 133.629C43.8464 133.368 44.4258 133.238 45.0703 133.238C45.7344 133.238 46.3138 133.355 46.8086 133.59C47.3099 133.818 47.7331 134.153 48.0781 134.596C48.4297 135.032 48.7064 135.559 48.9082 136.178C49.11 136.796 49.25 137.496 49.3281 138.277V139.176C49.2565 139.951 49.1165 140.647 48.9082 141.266C48.7064 141.884 48.4297 142.411 48.0781 142.848C47.7331 143.284 47.3099 143.619 46.8086 143.854C46.3073 144.081 45.7214 144.195 45.0508 144.195C44.4193 144.195 43.8464 144.062 43.332 143.795C42.8242 143.528 42.388 143.154 42.0234 142.672C41.6589 142.19 41.3789 141.624 41.1836 140.973C40.9948 140.315 40.9004 139.602 40.9004 138.834ZM42.707 138.629V138.834C42.707 139.361 42.7591 139.856 42.8633 140.318C42.974 140.781 43.14 141.188 43.3613 141.539C43.5892 141.891 43.8789 142.167 44.2305 142.369C44.582 142.564 45.002 142.662 45.4902 142.662C46.0892 142.662 46.584 142.535 46.9746 142.281C47.3652 142.027 47.6745 141.692 47.9023 141.275C48.1367 140.859 48.319 140.406 48.4492 139.918V137.564C48.3776 137.206 48.2669 136.861 48.1172 136.529C47.974 136.191 47.7852 135.891 47.5508 135.631C47.3229 135.364 47.0397 135.152 46.7012 134.996C46.3626 134.84 45.9655 134.762 45.5098 134.762C45.015 134.762 44.5885 134.866 44.2305 135.074C43.8789 135.276 43.5892 135.556 43.3613 135.914C43.14 136.266 42.974 136.676 42.8633 137.145C42.7591 137.607 42.707 138.102 42.707 138.629ZM55.5293 142.906L58.4688 133.434H60.4023L56.1641 145.631C56.0664 145.891 55.9362 146.171 55.7734 146.471C55.6172 146.777 55.4154 147.066 55.168 147.34C54.9206 147.613 54.6211 147.835 54.2695 148.004C53.9245 148.18 53.5111 148.268 53.0293 148.268C52.8861 148.268 52.7038 148.248 52.4824 148.209C52.2611 148.17 52.1048 148.137 52.0137 148.111L52.0039 146.646C52.056 146.653 52.1374 146.66 52.248 146.666C52.3652 146.679 52.4466 146.686 52.4922 146.686C52.9023 146.686 53.2507 146.63 53.5371 146.52C53.8236 146.415 54.0645 146.236 54.2598 145.982C54.4616 145.735 54.6341 145.393 54.7773 144.957L55.5293 142.906ZM53.3711 133.434L56.1152 141.637L56.584 143.541L55.2852 144.205L51.3984 133.434H53.3711Z" fill="black"/>
<path d="M528.902 23.4668V25H521.373V23.4668H528.902ZM521.754 10.7812V25H519.869V10.7812H521.754ZM527.906 16.8945V18.4277H521.373V16.8945H527.906ZM528.805 10.7812V12.3242H521.373V10.7812H528.805ZM532.77 16.6895V25H530.963V14.4336H532.672L532.77 16.6895ZM532.34 19.3164L531.588 19.2871C531.594 18.5645 531.702 17.8971 531.91 17.2852C532.118 16.6667 532.411 16.1296 532.789 15.6738C533.167 15.2181 533.616 14.8665 534.137 14.6191C534.664 14.3652 535.247 14.2383 535.885 14.2383C536.406 14.2383 536.874 14.3099 537.291 14.4531C537.708 14.5898 538.062 14.8112 538.355 15.1172C538.655 15.4232 538.883 15.8203 539.039 16.3086C539.195 16.7904 539.273 17.3796 539.273 18.0762V25H537.457V18.0566C537.457 17.5033 537.376 17.0605 537.213 16.7285C537.05 16.39 536.812 16.1458 536.5 15.9961C536.188 15.8398 535.803 15.7617 535.348 15.7617C534.898 15.7617 534.488 15.8561 534.117 16.0449C533.753 16.2337 533.437 16.4941 533.17 16.8262C532.91 17.1582 532.704 17.5391 532.555 17.9688C532.411 18.3919 532.34 18.8411 532.34 19.3164ZM546.402 25.1953C545.667 25.1953 544.999 25.0716 544.4 24.8242C543.808 24.5703 543.297 24.2155 542.867 23.7598C542.444 23.304 542.118 22.7637 541.891 22.1387C541.663 21.5137 541.549 20.8301 541.549 20.0879V19.6777C541.549 18.8184 541.676 18.0534 541.93 17.3828C542.184 16.7057 542.529 16.1328 542.965 15.6641C543.401 15.1953 543.896 14.8405 544.449 14.5996C545.003 14.3587 545.576 14.2383 546.168 14.2383C546.923 14.2383 547.574 14.3685 548.121 14.6289C548.674 14.8893 549.127 15.2539 549.479 15.7227C549.83 16.1849 550.09 16.7318 550.26 17.3633C550.429 17.9883 550.514 18.6719 550.514 19.4141V20.2246H542.623V18.75H548.707V18.6133C548.681 18.1445 548.583 17.6888 548.414 17.2461C548.251 16.8034 547.991 16.4388 547.633 16.1523C547.275 15.8659 546.786 15.7227 546.168 15.7227C545.758 15.7227 545.38 15.8105 545.035 15.9863C544.69 16.1556 544.394 16.4095 544.146 16.748C543.899 17.0866 543.707 17.5 543.57 17.9883C543.434 18.4766 543.365 19.0397 543.365 19.6777V20.0879C543.365 20.5892 543.434 21.0612 543.57 21.5039C543.714 21.9401 543.919 22.3242 544.186 22.6562C544.459 22.9883 544.788 23.2487 545.172 23.4375C545.562 23.6263 546.005 23.7207 546.5 23.7207C547.138 23.7207 547.678 23.5905 548.121 23.3301C548.564 23.0697 548.951 22.7214 549.283 22.2852L550.377 23.1543C550.149 23.4993 549.859 23.8281 549.508 24.1406C549.156 24.4531 548.723 24.707 548.209 24.9023C547.701 25.0977 547.099 25.1953 546.402 25.1953ZM554.43 16.0938V25H552.623V14.4336H554.381L554.43 16.0938ZM557.73 14.375L557.721 16.0547C557.571 16.0221 557.428 16.0026 557.291 15.9961C557.161 15.9831 557.011 15.9766 556.842 15.9766C556.425 15.9766 556.057 16.0417 555.738 16.1719C555.419 16.3021 555.149 16.4844 554.928 16.7188C554.706 16.9531 554.531 17.2331 554.4 17.5586C554.277 17.8776 554.195 18.2292 554.156 18.6133L553.648 18.9062C553.648 18.2682 553.71 17.6693 553.834 17.1094C553.964 16.5495 554.163 16.0547 554.43 15.625C554.697 15.1888 555.035 14.8503 555.445 14.6094C555.862 14.362 556.357 14.2383 556.93 14.2383C557.06 14.2383 557.21 14.2546 557.379 14.2871C557.548 14.3132 557.665 14.3424 557.73 14.375ZM566.051 14.4336H567.691V24.7754C567.691 25.7064 567.503 26.5007 567.125 27.1582C566.747 27.8158 566.22 28.3138 565.543 28.6523C564.872 28.9974 564.098 29.1699 563.219 29.1699C562.854 29.1699 562.424 29.1113 561.93 28.9941C561.441 28.8835 560.96 28.6914 560.484 28.418C560.016 28.151 559.622 27.7897 559.303 27.334L560.25 26.2598C560.693 26.7936 561.155 27.1647 561.637 27.373C562.125 27.5814 562.607 27.6855 563.082 27.6855C563.655 27.6855 564.15 27.5781 564.566 27.3633C564.983 27.1484 565.305 26.8294 565.533 26.4062C565.768 25.9896 565.885 25.4753 565.885 24.8633V16.7578L566.051 14.4336ZM558.775 19.834V19.6289C558.775 18.8216 558.87 18.0892 559.059 17.4316C559.254 16.7676 559.531 16.1979 559.889 15.7227C560.253 15.2474 560.693 14.8828 561.207 14.6289C561.721 14.3685 562.301 14.2383 562.945 14.2383C563.609 14.2383 564.189 14.3555 564.684 14.5898C565.185 14.8177 565.608 15.153 565.953 15.5957C566.305 16.0319 566.581 16.5592 566.783 17.1777C566.985 17.7962 567.125 18.4961 567.203 19.2773V20.1758C567.132 20.9505 566.992 21.6471 566.783 22.2656C566.581 22.8841 566.305 23.4115 565.953 23.8477C565.608 24.2839 565.185 24.6191 564.684 24.8535C564.182 25.0814 563.596 25.1953 562.926 25.1953C562.294 25.1953 561.721 25.0618 561.207 24.7949C560.699 24.528 560.263 24.1536 559.898 23.6719C559.534 23.1901 559.254 22.6237 559.059 21.9727C558.87 21.3151 558.775 20.6022 558.775 19.834ZM560.582 19.6289V19.834C560.582 20.3613 560.634 20.8561 560.738 21.3184C560.849 21.7806 561.015 22.1875 561.236 22.5391C561.464 22.8906 561.754 23.1673 562.105 23.3691C562.457 23.5645 562.877 23.6621 563.365 23.6621C563.964 23.6621 564.459 23.5352 564.85 23.2812C565.24 23.0273 565.549 22.6921 565.777 22.2754C566.012 21.8587 566.194 21.4062 566.324 20.918V18.5645C566.253 18.2064 566.142 17.8613 565.992 17.5293C565.849 17.1908 565.66 16.8913 565.426 16.6309C565.198 16.3639 564.915 16.1523 564.576 15.9961C564.238 15.8398 563.84 15.7617 563.385 15.7617C562.89 15.7617 562.464 15.8659 562.105 16.0742C561.754 16.276 561.464 16.556 561.236 16.9141C561.015 17.2656 560.849 17.6758 560.738 18.1445C560.634 18.6068 560.582 19.1016 560.582 19.6289ZM573.404 23.9062L576.344 14.4336H578.277L574.039 26.6309C573.941 26.8913 573.811 27.1712 573.648 27.4707C573.492 27.7767 573.29 28.0664 573.043 28.3398C572.796 28.6133 572.496 28.8346 572.145 29.0039C571.799 29.1797 571.386 29.2676 570.904 29.2676C570.761 29.2676 570.579 29.248 570.357 29.209C570.136 29.1699 569.98 29.1374 569.889 29.1113L569.879 27.6465C569.931 27.653 570.012 27.6595 570.123 27.666C570.24 27.679 570.322 27.6855 570.367 27.6855C570.777 27.6855 571.126 27.6302 571.412 27.5195C571.699 27.4154 571.939 27.2363 572.135 26.9824C572.337 26.735 572.509 26.3932 572.652 25.957L573.404 23.9062ZM571.246 14.4336L573.99 22.6367L574.459 24.541L573.16 25.2051L569.273 14.4336H571.246ZM587.545 23.125L590.26 14.4336H591.451L591.217 16.1621L588.453 25H587.291L587.545 23.125ZM585.719 14.4336L588.033 23.2227L588.199 25H586.979L583.912 14.4336H585.719ZM594.049 23.1543L596.256 14.4336H598.053L594.986 25H593.775L594.049 23.1543ZM591.715 14.4336L594.371 22.9785L594.674 25H593.521L590.68 16.1426L590.445 14.4336H591.715ZM601.871 14.4336V25H600.055V14.4336H601.871ZM599.918 11.6309C599.918 11.3379 600.006 11.0905 600.182 10.8887C600.364 10.6868 600.631 10.5859 600.982 10.5859C601.327 10.5859 601.591 10.6868 601.773 10.8887C601.962 11.0905 602.057 11.3379 602.057 11.6309C602.057 11.9108 601.962 12.1517 601.773 12.3535C601.591 12.5488 601.327 12.6465 600.982 12.6465C600.631 12.6465 600.364 12.5488 600.182 12.3535C600.006 12.1517 599.918 11.9108 599.918 11.6309ZM609.195 14.4336V15.8203H603.482V14.4336H609.195ZM605.416 11.8652H607.223V22.3828C607.223 22.7409 607.278 23.0111 607.389 23.1934C607.499 23.3757 607.643 23.4961 607.818 23.5547C607.994 23.6133 608.183 23.6426 608.385 23.6426C608.535 23.6426 608.691 23.6296 608.854 23.6035C609.023 23.571 609.15 23.5449 609.234 23.5254L609.244 25C609.101 25.0456 608.912 25.0879 608.678 25.127C608.45 25.1725 608.173 25.1953 607.848 25.1953C607.405 25.1953 606.998 25.1074 606.627 24.9316C606.256 24.7559 605.96 24.4629 605.738 24.0527C605.523 23.6361 605.416 23.0762 605.416 22.373V11.8652ZM613.121 10V25H611.314V10H613.121ZM612.691 19.3164L611.939 19.2871C611.946 18.5645 612.053 17.8971 612.262 17.2852C612.47 16.6667 612.763 16.1296 613.141 15.6738C613.518 15.2181 613.967 14.8665 614.488 14.6191C615.016 14.3652 615.598 14.2383 616.236 14.2383C616.757 14.2383 617.226 14.3099 617.643 14.4531C618.059 14.5898 618.414 14.8112 618.707 15.1172C619.007 15.4232 619.234 15.8203 619.391 16.3086C619.547 16.7904 619.625 17.3796 619.625 18.0762V25H617.809V18.0566C617.809 17.5033 617.727 17.0605 617.564 16.7285C617.402 16.39 617.164 16.1458 616.852 15.9961C616.539 15.8398 616.155 15.7617 615.699 15.7617C615.25 15.7617 614.84 15.8561 614.469 16.0449C614.104 16.2337 613.788 16.4941 613.521 16.8262C613.261 17.1582 613.056 17.5391 612.906 17.9688C612.763 18.3919 612.691 18.8411 612.691 19.3164ZM626.812 19.834V19.6094C626.812 18.8477 626.923 18.1413 627.145 17.4902C627.366 16.8327 627.685 16.263 628.102 15.7812C628.518 15.293 629.023 14.9154 629.615 14.6484C630.208 14.375 630.872 14.2383 631.607 14.2383C632.35 14.2383 633.017 14.375 633.609 14.6484C634.208 14.9154 634.716 15.293 635.133 15.7812C635.556 16.263 635.878 16.8327 636.1 17.4902C636.321 18.1413 636.432 18.8477 636.432 19.6094V19.834C636.432 20.5957 636.321 21.3021 636.1 21.9531C635.878 22.6042 635.556 23.1738 635.133 23.6621C634.716 24.1439 634.212 24.5215 633.619 24.7949C633.033 25.0618 632.369 25.1953 631.627 25.1953C630.885 25.1953 630.217 25.0618 629.625 24.7949C629.033 24.5215 628.525 24.1439 628.102 23.6621C627.685 23.1738 627.366 22.6042 627.145 21.9531C626.923 21.3021 626.812 20.5957 626.812 19.834ZM628.619 19.6094V19.834C628.619 20.3613 628.681 20.8594 628.805 21.3281C628.928 21.7904 629.114 22.2005 629.361 22.5586C629.615 22.9167 629.931 23.1999 630.309 23.4082C630.686 23.61 631.126 23.7109 631.627 23.7109C632.122 23.7109 632.555 23.61 632.926 23.4082C633.303 23.1999 633.616 22.9167 633.863 22.5586C634.111 22.2005 634.296 21.7904 634.42 21.3281C634.55 20.8594 634.615 20.3613 634.615 19.834V19.6094C634.615 19.0885 634.55 18.597 634.42 18.1348C634.296 17.666 634.107 17.2526 633.854 16.8945C633.606 16.5299 633.294 16.2435 632.916 16.0352C632.545 15.8268 632.109 15.7227 631.607 15.7227C631.113 15.7227 630.676 15.8268 630.299 16.0352C629.928 16.2435 629.615 16.5299 629.361 16.8945C629.114 17.2526 628.928 17.666 628.805 18.1348C628.681 18.597 628.619 19.0885 628.619 19.6094ZM640.66 10V25H638.844V10H640.66ZM650.221 22.9492V10H652.037V25H650.377L650.221 22.9492ZM643.111 19.834V19.6289C643.111 18.8216 643.209 18.0892 643.404 17.4316C643.606 16.7676 643.889 16.1979 644.254 15.7227C644.625 15.2474 645.064 14.8828 645.572 14.6289C646.087 14.3685 646.66 14.2383 647.291 14.2383C647.955 14.2383 648.535 14.3555 649.029 14.5898C649.531 14.8177 649.954 15.153 650.299 15.5957C650.65 16.0319 650.927 16.5592 651.129 17.1777C651.331 17.7962 651.471 18.4961 651.549 19.2773V20.1758C651.477 20.9505 651.337 21.6471 651.129 22.2656C650.927 22.8841 650.65 23.4115 650.299 23.8477C649.954 24.2839 649.531 24.6191 649.029 24.8535C648.528 25.0814 647.942 25.1953 647.271 25.1953C646.653 25.1953 646.087 25.0618 645.572 24.7949C645.064 24.528 644.625 24.1536 644.254 23.6719C643.889 23.1901 643.606 22.6237 643.404 21.9727C643.209 21.3151 643.111 20.6022 643.111 19.834ZM644.928 19.6289V19.834C644.928 20.3613 644.98 20.8561 645.084 21.3184C645.195 21.7806 645.364 22.1875 645.592 22.5391C645.82 22.8906 646.109 23.1673 646.461 23.3691C646.812 23.5645 647.232 23.6621 647.721 23.6621C648.32 23.6621 648.811 23.5352 649.195 23.2812C649.586 23.0273 649.898 22.6921 650.133 22.2754C650.367 21.8587 650.549 21.4062 650.68 20.918V18.5645C650.602 18.2064 650.488 17.8613 650.338 17.5293C650.195 17.1908 650.006 16.8913 649.771 16.6309C649.544 16.3639 649.26 16.1523 648.922 15.9961C648.59 15.8398 648.196 15.7617 647.74 15.7617C647.245 15.7617 646.819 15.8659 646.461 16.0742C646.109 16.276 645.82 16.556 645.592 16.9141C645.364 17.2656 645.195 17.6758 645.084 18.1445C644.98 18.6068 644.928 19.1016 644.928 19.6289ZM661.617 16.0938V25H659.811V14.4336H661.568L661.617 16.0938ZM664.918 14.375L664.908 16.0547C664.758 16.0221 664.615 16.0026 664.479 15.9961C664.348 15.9831 664.199 15.9766 664.029 15.9766C663.613 15.9766 663.245 16.0417 662.926 16.1719C662.607 16.3021 662.337 16.4844 662.115 16.7188C661.894 16.9531 661.718 17.2331 661.588 17.5586C661.464 17.8776 661.383 18.2292 661.344 18.6133L660.836 18.9062C660.836 18.2682 660.898 17.6693 661.021 17.1094C661.152 16.5495 661.35 16.0547 661.617 15.625C661.884 15.1888 662.223 14.8503 662.633 14.6094C663.049 14.362 663.544 14.2383 664.117 14.2383C664.247 14.2383 664.397 14.2546 664.566 14.2871C664.736 14.3132 664.853 14.3424 664.918 14.375ZM665.914 19.834V19.6094C665.914 18.8477 666.025 18.1413 666.246 17.4902C666.467 16.8327 666.786 16.263 667.203 15.7812C667.62 15.293 668.124 14.9154 668.717 14.6484C669.309 14.375 669.973 14.2383 670.709 14.2383C671.451 14.2383 672.118 14.375 672.711 14.6484C673.31 14.9154 673.818 15.293 674.234 15.7812C674.658 16.263 674.98 16.8327 675.201 17.4902C675.423 18.1413 675.533 18.8477 675.533 19.6094V19.834C675.533 20.5957 675.423 21.3021 675.201 21.9531C674.98 22.6042 674.658 23.1738 674.234 23.6621C673.818 24.1439 673.313 24.5215 672.721 24.7949C672.135 25.0618 671.471 25.1953 670.729 25.1953C669.986 25.1953 669.319 25.0618 668.727 24.7949C668.134 24.5215 667.626 24.1439 667.203 23.6621C666.786 23.1738 666.467 22.6042 666.246 21.9531C666.025 21.3021 665.914 20.5957 665.914 19.834ZM667.721 19.6094V19.834C667.721 20.3613 667.783 20.8594 667.906 21.3281C668.03 21.7904 668.215 22.2005 668.463 22.5586C668.717 22.9167 669.033 23.1999 669.41 23.4082C669.788 23.61 670.227 23.7109 670.729 23.7109C671.223 23.7109 671.656 23.61 672.027 23.4082C672.405 23.1999 672.717 22.9167 672.965 22.5586C673.212 22.2005 673.398 21.7904 673.521 21.3281C673.652 20.8594 673.717 20.3613 673.717 19.834V19.6094C673.717 19.0885 673.652 18.597 673.521 18.1348C673.398 17.666 673.209 17.2526 672.955 16.8945C672.708 16.5299 672.395 16.2435 672.018 16.0352C671.646 15.8268 671.21 15.7227 670.709 15.7227C670.214 15.7227 669.778 15.8268 669.4 16.0352C669.029 16.2435 668.717 16.5299 668.463 16.8945C668.215 17.2526 668.03 17.666 667.906 18.1348C667.783 18.597 667.721 19.0885 667.721 19.6094ZM677.32 19.834V19.6094C677.32 18.8477 677.431 18.1413 677.652 17.4902C677.874 16.8327 678.193 16.263 678.609 15.7812C679.026 15.293 679.531 14.9154 680.123 14.6484C680.715 14.375 681.38 14.2383 682.115 14.2383C682.857 14.2383 683.525 14.375 684.117 14.6484C684.716 14.9154 685.224 15.293 685.641 15.7812C686.064 16.263 686.386 16.8327 686.607 17.4902C686.829 18.1413 686.939 18.8477 686.939 19.6094V19.834C686.939 20.5957 686.829 21.3021 686.607 21.9531C686.386 22.6042 686.064 23.1738 685.641 23.6621C685.224 24.1439 684.719 24.5215 684.127 24.7949C683.541 25.0618 682.877 25.1953 682.135 25.1953C681.393 25.1953 680.725 25.0618 680.133 24.7949C679.54 24.5215 679.033 24.1439 678.609 23.6621C678.193 23.1738 677.874 22.6042 677.652 21.9531C677.431 21.3021 677.32 20.5957 677.32 19.834ZM679.127 19.6094V19.834C679.127 20.3613 679.189 20.8594 679.312 21.3281C679.436 21.7904 679.622 22.2005 679.869 22.5586C680.123 22.9167 680.439 23.1999 680.816 23.4082C681.194 23.61 681.633 23.7109 682.135 23.7109C682.63 23.7109 683.062 23.61 683.434 23.4082C683.811 23.1999 684.124 22.9167 684.371 22.5586C684.618 22.2005 684.804 21.7904 684.928 21.3281C685.058 20.8594 685.123 20.3613 685.123 19.834V19.6094C685.123 19.0885 685.058 18.597 684.928 18.1348C684.804 17.666 684.615 17.2526 684.361 16.8945C684.114 16.5299 683.801 16.2435 683.424 16.0352C683.053 15.8268 682.617 15.7227 682.115 15.7227C681.62 15.7227 681.184 15.8268 680.807 16.0352C680.436 16.2435 680.123 16.5299 679.869 16.8945C679.622 17.2526 679.436 17.666 679.312 18.1348C679.189 18.597 679.127 19.0885 679.127 19.6094ZM691.9 25H690.094V13.3203C690.094 12.5586 690.23 11.9173 690.504 11.3965C690.784 10.8691 691.184 10.472 691.705 10.2051C692.226 9.93164 692.844 9.79492 693.561 9.79492C693.769 9.79492 693.977 9.80794 694.186 9.83398C694.4 9.86003 694.609 9.89909 694.811 9.95117L694.713 11.4258C694.576 11.3932 694.42 11.3704 694.244 11.3574C694.075 11.3444 693.906 11.3379 693.736 11.3379C693.352 11.3379 693.02 11.416 692.74 11.5723C692.467 11.722 692.258 11.9434 692.115 12.2363C691.972 12.5293 691.9 12.8906 691.9 13.3203V25ZM694.146 14.4336V15.8203H688.424V14.4336H694.146Z" fill="black"/>
<path d="M520.346 101.406C520.346 101.074 520.294 100.781 520.189 100.527C520.092 100.267 519.916 100.033 519.662 99.8242C519.415 99.6159 519.07 99.4173 518.627 99.2285C518.191 99.0397 517.637 98.8477 516.967 98.6523C516.264 98.444 515.629 98.2129 515.062 97.959C514.496 97.6986 514.011 97.4023 513.607 97.0703C513.204 96.7383 512.895 96.3574 512.68 95.9277C512.465 95.498 512.357 95.0065 512.357 94.4531C512.357 93.8997 512.471 93.3887 512.699 92.9199C512.927 92.4512 513.253 92.0443 513.676 91.6992C514.105 91.3477 514.617 91.0742 515.209 90.8789C515.801 90.6836 516.462 90.5859 517.191 90.5859C518.259 90.5859 519.164 90.791 519.906 91.2012C520.655 91.6048 521.225 92.1354 521.615 92.793C522.006 93.444 522.201 94.1406 522.201 94.8828H520.326C520.326 94.349 520.212 93.877 519.984 93.4668C519.757 93.0501 519.411 92.7246 518.949 92.4902C518.487 92.2493 517.901 92.1289 517.191 92.1289C516.521 92.1289 515.967 92.2298 515.531 92.4316C515.095 92.6335 514.77 92.9069 514.555 93.252C514.346 93.597 514.242 93.9909 514.242 94.4336C514.242 94.7331 514.304 95.0065 514.428 95.2539C514.558 95.4948 514.757 95.7194 515.023 95.9277C515.297 96.1361 515.642 96.3281 516.059 96.5039C516.482 96.6797 516.986 96.849 517.572 97.0117C518.38 97.2396 519.076 97.4935 519.662 97.7734C520.248 98.0534 520.73 98.3691 521.107 98.7207C521.492 99.0658 521.775 99.4596 521.957 99.9023C522.146 100.339 522.24 100.833 522.24 101.387C522.24 101.966 522.123 102.49 521.889 102.959C521.654 103.428 521.319 103.828 520.883 104.16C520.447 104.492 519.923 104.749 519.311 104.932C518.705 105.107 518.028 105.195 517.279 105.195C516.622 105.195 515.974 105.104 515.336 104.922C514.704 104.74 514.128 104.466 513.607 104.102C513.093 103.737 512.68 103.288 512.367 102.754C512.061 102.214 511.908 101.589 511.908 100.879H513.783C513.783 101.367 513.878 101.787 514.066 102.139C514.255 102.484 514.512 102.77 514.838 102.998C515.17 103.226 515.544 103.395 515.961 103.506C516.384 103.61 516.824 103.662 517.279 103.662C517.937 103.662 518.493 103.571 518.949 103.389C519.405 103.206 519.75 102.946 519.984 102.607C520.225 102.269 520.346 101.868 520.346 101.406ZM530.6 103.193V97.7539C530.6 97.3372 530.515 96.9759 530.346 96.6699C530.183 96.3574 529.936 96.1165 529.604 95.9473C529.271 95.778 528.861 95.6934 528.373 95.6934C527.917 95.6934 527.517 95.7715 527.172 95.9277C526.833 96.084 526.566 96.2891 526.371 96.543C526.182 96.7969 526.088 97.0703 526.088 97.3633H524.281C524.281 96.9857 524.379 96.6113 524.574 96.2402C524.77 95.8691 525.049 95.5339 525.414 95.2344C525.785 94.9284 526.228 94.6875 526.742 94.5117C527.263 94.3294 527.842 94.2383 528.48 94.2383C529.249 94.2383 529.926 94.3685 530.512 94.6289C531.104 94.8893 531.566 95.2832 531.898 95.8105C532.237 96.3314 532.406 96.9857 532.406 97.7734V102.695C532.406 103.047 532.436 103.421 532.494 103.818C532.559 104.215 532.654 104.557 532.777 104.844V105H530.893C530.801 104.792 530.73 104.515 530.678 104.17C530.626 103.818 530.6 103.493 530.6 103.193ZM530.912 98.5938L530.932 99.8633H529.105C528.591 99.8633 528.132 99.9056 527.729 99.9902C527.325 100.068 526.986 100.189 526.713 100.352C526.439 100.514 526.231 100.719 526.088 100.967C525.945 101.208 525.873 101.491 525.873 101.816C525.873 102.148 525.948 102.451 526.098 102.725C526.247 102.998 526.472 103.216 526.771 103.379C527.077 103.535 527.452 103.613 527.895 103.613C528.448 103.613 528.936 103.496 529.359 103.262C529.783 103.027 530.118 102.741 530.365 102.402C530.619 102.064 530.756 101.735 530.775 101.416L531.547 102.285C531.501 102.559 531.378 102.861 531.176 103.193C530.974 103.525 530.704 103.844 530.365 104.15C530.033 104.45 529.636 104.701 529.174 104.902C528.718 105.098 528.204 105.195 527.631 105.195C526.915 105.195 526.286 105.055 525.746 104.775C525.212 104.495 524.796 104.121 524.496 103.652C524.203 103.177 524.057 102.646 524.057 102.061C524.057 101.494 524.167 100.996 524.389 100.566C524.61 100.13 524.929 99.7689 525.346 99.4824C525.762 99.1895 526.264 98.9681 526.85 98.8184C527.436 98.6686 528.09 98.5938 528.812 98.5938H530.912ZM538.305 103.369L541.195 94.4336H543.041L539.242 105H538.031L538.305 103.369ZM535.893 94.4336L538.871 103.418L539.076 105H537.865L534.037 94.4336H535.893ZM546.742 94.4336V105H544.926V94.4336H546.742ZM544.789 91.6309C544.789 91.3379 544.877 91.0905 545.053 90.8887C545.235 90.6868 545.502 90.5859 545.854 90.5859C546.199 90.5859 546.462 90.6868 546.645 90.8887C546.833 91.0905 546.928 91.3379 546.928 91.6309C546.928 91.9108 546.833 92.1517 546.645 92.3535C546.462 92.5488 546.199 92.6465 545.854 92.6465C545.502 92.6465 545.235 92.5488 545.053 92.3535C544.877 92.1517 544.789 91.9108 544.789 91.6309ZM551.449 96.6895V105H549.643V94.4336H551.352L551.449 96.6895ZM551.02 99.3164L550.268 99.2871C550.274 98.5645 550.382 97.8971 550.59 97.2852C550.798 96.6667 551.091 96.1296 551.469 95.6738C551.846 95.2181 552.296 94.8665 552.816 94.6191C553.344 94.3652 553.926 94.2383 554.564 94.2383C555.085 94.2383 555.554 94.3099 555.971 94.4531C556.387 94.5898 556.742 94.8112 557.035 95.1172C557.335 95.4232 557.562 95.8203 557.719 96.3086C557.875 96.7904 557.953 97.3796 557.953 98.0762V105H556.137V98.0566C556.137 97.5033 556.055 97.0605 555.893 96.7285C555.73 96.39 555.492 96.1458 555.18 95.9961C554.867 95.8398 554.483 95.7617 554.027 95.7617C553.578 95.7617 553.168 95.8561 552.797 96.0449C552.432 96.2337 552.117 96.4941 551.85 96.8262C551.589 97.1582 551.384 97.5391 551.234 97.9688C551.091 98.3919 551.02 98.8411 551.02 99.3164ZM567.543 94.4336H569.184V104.775C569.184 105.706 568.995 106.501 568.617 107.158C568.24 107.816 567.712 108.314 567.035 108.652C566.365 108.997 565.59 109.17 564.711 109.17C564.346 109.17 563.917 109.111 563.422 108.994C562.934 108.883 562.452 108.691 561.977 108.418C561.508 108.151 561.114 107.79 560.795 107.334L561.742 106.26C562.185 106.794 562.647 107.165 563.129 107.373C563.617 107.581 564.099 107.686 564.574 107.686C565.147 107.686 565.642 107.578 566.059 107.363C566.475 107.148 566.798 106.829 567.025 106.406C567.26 105.99 567.377 105.475 567.377 104.863V96.7578L567.543 94.4336ZM560.268 99.834V99.6289C560.268 98.8216 560.362 98.0892 560.551 97.4316C560.746 96.7676 561.023 96.1979 561.381 95.7227C561.745 95.2474 562.185 94.8828 562.699 94.6289C563.214 94.3685 563.793 94.2383 564.438 94.2383C565.102 94.2383 565.681 94.3555 566.176 94.5898C566.677 94.8177 567.1 95.153 567.445 95.5957C567.797 96.0319 568.074 96.5592 568.275 97.1777C568.477 97.7962 568.617 98.4961 568.695 99.2773V100.176C568.624 100.951 568.484 101.647 568.275 102.266C568.074 102.884 567.797 103.411 567.445 103.848C567.1 104.284 566.677 104.619 566.176 104.854C565.674 105.081 565.089 105.195 564.418 105.195C563.786 105.195 563.214 105.062 562.699 104.795C562.191 104.528 561.755 104.154 561.391 103.672C561.026 103.19 560.746 102.624 560.551 101.973C560.362 101.315 560.268 100.602 560.268 99.834ZM562.074 99.6289V99.834C562.074 100.361 562.126 100.856 562.23 101.318C562.341 101.781 562.507 102.188 562.729 102.539C562.956 102.891 563.246 103.167 563.598 103.369C563.949 103.564 564.369 103.662 564.857 103.662C565.456 103.662 565.951 103.535 566.342 103.281C566.732 103.027 567.042 102.692 567.27 102.275C567.504 101.859 567.686 101.406 567.816 100.918V98.5645C567.745 98.2064 567.634 97.8613 567.484 97.5293C567.341 97.1908 567.152 96.8913 566.918 96.6309C566.69 96.3639 566.407 96.1523 566.068 95.9961C565.73 95.8398 565.333 95.7617 564.877 95.7617C564.382 95.7617 563.956 95.8659 563.598 96.0742C563.246 96.276 562.956 96.556 562.729 96.9141C562.507 97.2656 562.341 97.6758 562.23 98.1445C562.126 98.6068 562.074 99.1016 562.074 99.6289ZM578.08 102.197C578.08 101.937 578.021 101.696 577.904 101.475C577.794 101.247 577.562 101.042 577.211 100.859C576.866 100.671 576.345 100.508 575.648 100.371C575.062 100.247 574.532 100.101 574.057 99.9316C573.588 99.7624 573.188 99.5573 572.855 99.3164C572.53 99.0755 572.279 98.7923 572.104 98.4668C571.928 98.1413 571.84 97.7604 571.84 97.3242C571.84 96.9076 571.931 96.5137 572.113 96.1426C572.302 95.7715 572.566 95.4427 572.904 95.1562C573.249 94.8698 573.663 94.6452 574.145 94.4824C574.626 94.3197 575.163 94.2383 575.756 94.2383C576.602 94.2383 577.325 94.388 577.924 94.6875C578.523 94.987 578.982 95.3874 579.301 95.8887C579.62 96.3835 579.779 96.9336 579.779 97.5391H577.973C577.973 97.2461 577.885 96.9629 577.709 96.6895C577.54 96.4095 577.289 96.1784 576.957 95.9961C576.632 95.8138 576.231 95.7227 575.756 95.7227C575.255 95.7227 574.848 95.8008 574.535 95.957C574.229 96.1068 574.005 96.2988 573.861 96.5332C573.725 96.7676 573.656 97.015 573.656 97.2754C573.656 97.4707 573.689 97.6465 573.754 97.8027C573.826 97.9525 573.949 98.0924 574.125 98.2227C574.301 98.3464 574.548 98.4635 574.867 98.5742C575.186 98.6849 575.593 98.7956 576.088 98.9062C576.954 99.1016 577.667 99.3359 578.227 99.6094C578.786 99.8828 579.203 100.218 579.477 100.615C579.75 101.012 579.887 101.494 579.887 102.061C579.887 102.523 579.789 102.946 579.594 103.33C579.405 103.714 579.128 104.046 578.764 104.326C578.406 104.6 577.976 104.814 577.475 104.971C576.98 105.12 576.423 105.195 575.805 105.195C574.874 105.195 574.086 105.029 573.441 104.697C572.797 104.365 572.309 103.936 571.977 103.408C571.645 102.881 571.479 102.324 571.479 101.738H573.295C573.321 102.233 573.464 102.627 573.725 102.92C573.985 103.206 574.304 103.411 574.682 103.535C575.059 103.652 575.434 103.711 575.805 103.711C576.299 103.711 576.713 103.646 577.045 103.516C577.383 103.385 577.641 103.206 577.816 102.979C577.992 102.751 578.08 102.49 578.08 102.197Z" fill="black"/>
<path d="M498.832 170.467V172H491.303V170.467H498.832ZM491.684 157.781V172H489.799V157.781H491.684ZM497.836 163.895V165.428H491.303V163.895H497.836ZM498.734 157.781V159.324H491.303V157.781H498.734ZM502.699 163.689V172H500.893V161.434H502.602L502.699 163.689ZM502.27 166.316L501.518 166.287C501.524 165.564 501.632 164.897 501.84 164.285C502.048 163.667 502.341 163.13 502.719 162.674C503.096 162.218 503.546 161.867 504.066 161.619C504.594 161.365 505.176 161.238 505.814 161.238C506.335 161.238 506.804 161.31 507.221 161.453C507.637 161.59 507.992 161.811 508.285 162.117C508.585 162.423 508.812 162.82 508.969 163.309C509.125 163.79 509.203 164.38 509.203 165.076V172H507.387V165.057C507.387 164.503 507.305 164.061 507.143 163.729C506.98 163.39 506.742 163.146 506.43 162.996C506.117 162.84 505.733 162.762 505.277 162.762C504.828 162.762 504.418 162.856 504.047 163.045C503.682 163.234 503.367 163.494 503.1 163.826C502.839 164.158 502.634 164.539 502.484 164.969C502.341 165.392 502.27 165.841 502.27 166.316ZM516.332 172.195C515.596 172.195 514.929 172.072 514.33 171.824C513.738 171.57 513.227 171.215 512.797 170.76C512.374 170.304 512.048 169.764 511.82 169.139C511.592 168.514 511.479 167.83 511.479 167.088V166.678C511.479 165.818 511.605 165.053 511.859 164.383C512.113 163.706 512.458 163.133 512.895 162.664C513.331 162.195 513.826 161.84 514.379 161.6C514.932 161.359 515.505 161.238 516.098 161.238C516.853 161.238 517.504 161.368 518.051 161.629C518.604 161.889 519.057 162.254 519.408 162.723C519.76 163.185 520.02 163.732 520.189 164.363C520.359 164.988 520.443 165.672 520.443 166.414V167.225H512.553V165.75H518.637V165.613C518.611 165.145 518.513 164.689 518.344 164.246C518.181 163.803 517.921 163.439 517.562 163.152C517.204 162.866 516.716 162.723 516.098 162.723C515.688 162.723 515.31 162.811 514.965 162.986C514.62 163.156 514.324 163.41 514.076 163.748C513.829 164.087 513.637 164.5 513.5 164.988C513.363 165.477 513.295 166.04 513.295 166.678V167.088C513.295 167.589 513.363 168.061 513.5 168.504C513.643 168.94 513.848 169.324 514.115 169.656C514.389 169.988 514.717 170.249 515.102 170.438C515.492 170.626 515.935 170.721 516.43 170.721C517.068 170.721 517.608 170.59 518.051 170.33C518.493 170.07 518.881 169.721 519.213 169.285L520.307 170.154C520.079 170.499 519.789 170.828 519.438 171.141C519.086 171.453 518.653 171.707 518.139 171.902C517.631 172.098 517.029 172.195 516.332 172.195ZM524.359 163.094V172H522.553V161.434H524.311L524.359 163.094ZM527.66 161.375L527.65 163.055C527.501 163.022 527.357 163.003 527.221 162.996C527.09 162.983 526.941 162.977 526.771 162.977C526.355 162.977 525.987 163.042 525.668 163.172C525.349 163.302 525.079 163.484 524.857 163.719C524.636 163.953 524.46 164.233 524.33 164.559C524.206 164.878 524.125 165.229 524.086 165.613L523.578 165.906C523.578 165.268 523.64 164.669 523.764 164.109C523.894 163.549 524.092 163.055 524.359 162.625C524.626 162.189 524.965 161.85 525.375 161.609C525.792 161.362 526.286 161.238 526.859 161.238C526.99 161.238 527.139 161.255 527.309 161.287C527.478 161.313 527.595 161.342 527.66 161.375ZM535.98 161.434H537.621V171.775C537.621 172.706 537.432 173.501 537.055 174.158C536.677 174.816 536.15 175.314 535.473 175.652C534.802 175.997 534.027 176.17 533.148 176.17C532.784 176.17 532.354 176.111 531.859 175.994C531.371 175.883 530.889 175.691 530.414 175.418C529.945 175.151 529.551 174.79 529.232 174.334L530.18 173.26C530.622 173.794 531.085 174.165 531.566 174.373C532.055 174.581 532.536 174.686 533.012 174.686C533.585 174.686 534.079 174.578 534.496 174.363C534.913 174.148 535.235 173.829 535.463 173.406C535.697 172.99 535.814 172.475 535.814 171.863V163.758L535.98 161.434ZM528.705 166.834V166.629C528.705 165.822 528.799 165.089 528.988 164.432C529.184 163.768 529.46 163.198 529.818 162.723C530.183 162.247 530.622 161.883 531.137 161.629C531.651 161.368 532.23 161.238 532.875 161.238C533.539 161.238 534.118 161.355 534.613 161.59C535.115 161.818 535.538 162.153 535.883 162.596C536.234 163.032 536.511 163.559 536.713 164.178C536.915 164.796 537.055 165.496 537.133 166.277V167.176C537.061 167.951 536.921 168.647 536.713 169.266C536.511 169.884 536.234 170.411 535.883 170.848C535.538 171.284 535.115 171.619 534.613 171.854C534.112 172.081 533.526 172.195 532.855 172.195C532.224 172.195 531.651 172.062 531.137 171.795C530.629 171.528 530.193 171.154 529.828 170.672C529.464 170.19 529.184 169.624 528.988 168.973C528.799 168.315 528.705 167.602 528.705 166.834ZM530.512 166.629V166.834C530.512 167.361 530.564 167.856 530.668 168.318C530.779 168.781 530.945 169.188 531.166 169.539C531.394 169.891 531.684 170.167 532.035 170.369C532.387 170.564 532.807 170.662 533.295 170.662C533.894 170.662 534.389 170.535 534.779 170.281C535.17 170.027 535.479 169.692 535.707 169.275C535.941 168.859 536.124 168.406 536.254 167.918V165.564C536.182 165.206 536.072 164.861 535.922 164.529C535.779 164.191 535.59 163.891 535.355 163.631C535.128 163.364 534.844 163.152 534.506 162.996C534.167 162.84 533.77 162.762 533.314 162.762C532.82 162.762 532.393 162.866 532.035 163.074C531.684 163.276 531.394 163.556 531.166 163.914C530.945 164.266 530.779 164.676 530.668 165.145C530.564 165.607 530.512 166.102 530.512 166.629ZM543.334 170.906L546.273 161.434H548.207L543.969 173.631C543.871 173.891 543.741 174.171 543.578 174.471C543.422 174.777 543.22 175.066 542.973 175.34C542.725 175.613 542.426 175.835 542.074 176.004C541.729 176.18 541.316 176.268 540.834 176.268C540.691 176.268 540.508 176.248 540.287 176.209C540.066 176.17 539.91 176.137 539.818 176.111L539.809 174.646C539.861 174.653 539.942 174.66 540.053 174.666C540.17 174.679 540.251 174.686 540.297 174.686C540.707 174.686 541.055 174.63 541.342 174.52C541.628 174.415 541.869 174.236 542.064 173.982C542.266 173.735 542.439 173.393 542.582 172.957L543.334 170.906ZM541.176 161.434L543.92 169.637L544.389 171.541L543.09 172.205L539.203 161.434H541.176ZM557.475 170.125L560.189 161.434H561.381L561.146 163.162L558.383 172H557.221L557.475 170.125ZM555.648 161.434L557.963 170.223L558.129 172H556.908L553.842 161.434H555.648ZM563.979 170.154L566.186 161.434H567.982L564.916 172H563.705L563.979 170.154ZM561.645 161.434L564.301 169.979L564.604 172H563.451L560.609 163.143L560.375 161.434H561.645ZM571.801 161.434V172H569.984V161.434H571.801ZM569.848 158.631C569.848 158.338 569.936 158.09 570.111 157.889C570.294 157.687 570.561 157.586 570.912 157.586C571.257 157.586 571.521 157.687 571.703 157.889C571.892 158.09 571.986 158.338 571.986 158.631C571.986 158.911 571.892 159.152 571.703 159.354C571.521 159.549 571.257 159.646 570.912 159.646C570.561 159.646 570.294 159.549 570.111 159.354C569.936 159.152 569.848 158.911 569.848 158.631ZM579.125 161.434V162.82H573.412V161.434H579.125ZM575.346 158.865H577.152V169.383C577.152 169.741 577.208 170.011 577.318 170.193C577.429 170.376 577.572 170.496 577.748 170.555C577.924 170.613 578.113 170.643 578.314 170.643C578.464 170.643 578.62 170.63 578.783 170.604C578.952 170.571 579.079 170.545 579.164 170.525L579.174 172C579.031 172.046 578.842 172.088 578.607 172.127C578.38 172.173 578.103 172.195 577.777 172.195C577.335 172.195 576.928 172.107 576.557 171.932C576.186 171.756 575.889 171.463 575.668 171.053C575.453 170.636 575.346 170.076 575.346 169.373V158.865ZM583.051 157V172H581.244V157H583.051ZM582.621 166.316L581.869 166.287C581.876 165.564 581.983 164.897 582.191 164.285C582.4 163.667 582.693 163.13 583.07 162.674C583.448 162.218 583.897 161.867 584.418 161.619C584.945 161.365 585.528 161.238 586.166 161.238C586.687 161.238 587.156 161.31 587.572 161.453C587.989 161.59 588.344 161.811 588.637 162.117C588.936 162.423 589.164 162.82 589.32 163.309C589.477 163.79 589.555 164.38 589.555 165.076V172H587.738V165.057C587.738 164.503 587.657 164.061 587.494 163.729C587.331 163.39 587.094 163.146 586.781 162.996C586.469 162.84 586.085 162.762 585.629 162.762C585.18 162.762 584.77 162.856 584.398 163.045C584.034 163.234 583.718 163.494 583.451 163.826C583.191 164.158 582.986 164.539 582.836 164.969C582.693 165.392 582.621 165.841 582.621 166.316ZM599.027 163.689V172H597.221V161.434H598.93L599.027 163.689ZM598.598 166.316L597.846 166.287C597.852 165.564 597.96 164.897 598.168 164.285C598.376 163.667 598.669 163.13 599.047 162.674C599.424 162.218 599.874 161.867 600.395 161.619C600.922 161.365 601.505 161.238 602.143 161.238C602.663 161.238 603.132 161.31 603.549 161.453C603.965 161.59 604.32 161.811 604.613 162.117C604.913 162.423 605.141 162.82 605.297 163.309C605.453 163.79 605.531 164.38 605.531 165.076V172H603.715V165.057C603.715 164.503 603.633 164.061 603.471 163.729C603.308 163.39 603.07 163.146 602.758 162.996C602.445 162.84 602.061 162.762 601.605 162.762C601.156 162.762 600.746 162.856 600.375 163.045C600.01 163.234 599.695 163.494 599.428 163.826C599.167 164.158 598.962 164.539 598.812 164.969C598.669 165.392 598.598 165.841 598.598 166.316ZM612.66 172.195C611.924 172.195 611.257 172.072 610.658 171.824C610.066 171.57 609.555 171.215 609.125 170.76C608.702 170.304 608.376 169.764 608.148 169.139C607.921 168.514 607.807 167.83 607.807 167.088V166.678C607.807 165.818 607.934 165.053 608.188 164.383C608.441 163.706 608.786 163.133 609.223 162.664C609.659 162.195 610.154 161.84 610.707 161.6C611.26 161.359 611.833 161.238 612.426 161.238C613.181 161.238 613.832 161.368 614.379 161.629C614.932 161.889 615.385 162.254 615.736 162.723C616.088 163.185 616.348 163.732 616.518 164.363C616.687 164.988 616.771 165.672 616.771 166.414V167.225H608.881V165.75H614.965V165.613C614.939 165.145 614.841 164.689 614.672 164.246C614.509 163.803 614.249 163.439 613.891 163.152C613.533 162.866 613.044 162.723 612.426 162.723C612.016 162.723 611.638 162.811 611.293 162.986C610.948 163.156 610.652 163.41 610.404 163.748C610.157 164.087 609.965 164.5 609.828 164.988C609.691 165.477 609.623 166.04 609.623 166.678V167.088C609.623 167.589 609.691 168.061 609.828 168.504C609.971 168.94 610.176 169.324 610.443 169.656C610.717 169.988 611.046 170.249 611.43 170.438C611.82 170.626 612.263 170.721 612.758 170.721C613.396 170.721 613.936 170.59 614.379 170.33C614.822 170.07 615.209 169.721 615.541 169.285L616.635 170.154C616.407 170.499 616.117 170.828 615.766 171.141C615.414 171.453 614.981 171.707 614.467 171.902C613.959 172.098 613.357 172.195 612.66 172.195ZM621.557 170.125L624.271 161.434H625.463L625.229 163.162L622.465 172H621.303L621.557 170.125ZM619.73 161.434L622.045 170.223L622.211 172H620.99L617.924 161.434H619.73ZM628.061 170.154L630.268 161.434H632.064L628.998 172H627.787L628.061 170.154ZM625.727 161.434L628.383 169.979L628.686 172H627.533L624.691 163.143L624.457 161.434H625.727ZM640.688 163.094V172H638.881V161.434H640.639L640.688 163.094ZM643.988 161.375L643.979 163.055C643.829 163.022 643.686 163.003 643.549 162.996C643.419 162.983 643.269 162.977 643.1 162.977C642.683 162.977 642.315 163.042 641.996 163.172C641.677 163.302 641.407 163.484 641.186 163.719C640.964 163.953 640.788 164.233 640.658 164.559C640.535 164.878 640.453 165.229 640.414 165.613L639.906 165.906C639.906 165.268 639.968 164.669 640.092 164.109C640.222 163.549 640.421 163.055 640.688 162.625C640.954 162.189 641.293 161.85 641.703 161.609C642.12 161.362 642.615 161.238 643.188 161.238C643.318 161.238 643.467 161.255 643.637 161.287C643.806 161.313 643.923 161.342 643.988 161.375ZM644.984 166.834V166.609C644.984 165.848 645.095 165.141 645.316 164.49C645.538 163.833 645.857 163.263 646.273 162.781C646.69 162.293 647.195 161.915 647.787 161.648C648.38 161.375 649.044 161.238 649.779 161.238C650.521 161.238 651.189 161.375 651.781 161.648C652.38 161.915 652.888 162.293 653.305 162.781C653.728 163.263 654.05 163.833 654.271 164.49C654.493 165.141 654.604 165.848 654.604 166.609V166.834C654.604 167.596 654.493 168.302 654.271 168.953C654.05 169.604 653.728 170.174 653.305 170.662C652.888 171.144 652.383 171.521 651.791 171.795C651.205 172.062 650.541 172.195 649.799 172.195C649.057 172.195 648.389 172.062 647.797 171.795C647.204 171.521 646.697 171.144 646.273 170.662C645.857 170.174 645.538 169.604 645.316 168.953C645.095 168.302 644.984 167.596 644.984 166.834ZM646.791 166.609V166.834C646.791 167.361 646.853 167.859 646.977 168.328C647.1 168.79 647.286 169.201 647.533 169.559C647.787 169.917 648.103 170.2 648.48 170.408C648.858 170.61 649.298 170.711 649.799 170.711C650.294 170.711 650.727 170.61 651.098 170.408C651.475 170.2 651.788 169.917 652.035 169.559C652.283 169.201 652.468 168.79 652.592 168.328C652.722 167.859 652.787 167.361 652.787 166.834V166.609C652.787 166.089 652.722 165.597 652.592 165.135C652.468 164.666 652.279 164.253 652.025 163.895C651.778 163.53 651.465 163.243 651.088 163.035C650.717 162.827 650.281 162.723 649.779 162.723C649.285 162.723 648.848 162.827 648.471 163.035C648.1 163.243 647.787 163.53 647.533 163.895C647.286 164.253 647.1 164.666 646.977 165.135C646.853 165.597 646.791 166.089 646.791 166.609ZM656.391 166.834V166.609C656.391 165.848 656.501 165.141 656.723 164.49C656.944 163.833 657.263 163.263 657.68 162.781C658.096 162.293 658.601 161.915 659.193 161.648C659.786 161.375 660.45 161.238 661.186 161.238C661.928 161.238 662.595 161.375 663.188 161.648C663.786 161.915 664.294 162.293 664.711 162.781C665.134 163.263 665.456 163.833 665.678 164.49C665.899 165.141 666.01 165.848 666.01 166.609V166.834C666.01 167.596 665.899 168.302 665.678 168.953C665.456 169.604 665.134 170.174 664.711 170.662C664.294 171.144 663.79 171.521 663.197 171.795C662.611 172.062 661.947 172.195 661.205 172.195C660.463 172.195 659.796 172.062 659.203 171.795C658.611 171.521 658.103 171.144 657.68 170.662C657.263 170.174 656.944 169.604 656.723 168.953C656.501 168.302 656.391 167.596 656.391 166.834ZM658.197 166.609V166.834C658.197 167.361 658.259 167.859 658.383 168.328C658.507 168.79 658.692 169.201 658.939 169.559C659.193 169.917 659.509 170.2 659.887 170.408C660.264 170.61 660.704 170.711 661.205 170.711C661.7 170.711 662.133 170.61 662.504 170.408C662.882 170.2 663.194 169.917 663.441 169.559C663.689 169.201 663.874 168.79 663.998 168.328C664.128 167.859 664.193 167.361 664.193 166.834V166.609C664.193 166.089 664.128 165.597 663.998 165.135C663.874 164.666 663.686 164.253 663.432 163.895C663.184 163.53 662.872 163.243 662.494 163.035C662.123 162.827 661.687 162.723 661.186 162.723C660.691 162.723 660.255 162.827 659.877 163.035C659.506 163.243 659.193 163.53 658.939 163.895C658.692 164.253 658.507 164.666 658.383 165.135C658.259 165.597 658.197 166.089 658.197 166.609ZM670.971 172H669.164V160.32C669.164 159.559 669.301 158.917 669.574 158.396C669.854 157.869 670.255 157.472 670.775 157.205C671.296 156.932 671.915 156.795 672.631 156.795C672.839 156.795 673.048 156.808 673.256 156.834C673.471 156.86 673.679 156.899 673.881 156.951L673.783 158.426C673.646 158.393 673.49 158.37 673.314 158.357C673.145 158.344 672.976 158.338 672.807 158.338C672.423 158.338 672.09 158.416 671.811 158.572C671.537 158.722 671.329 158.943 671.186 159.236C671.042 159.529 670.971 159.891 670.971 160.32V172ZM673.217 161.434V162.82H667.494V161.434H673.217Z" fill="black"/>
<path d="M458 123L484 149" stroke="#C4C4C4" stroke-linecap="round"/>
<path d="M506.334 30.3724C506.539 30.1882 506.557 29.8721 506.372 29.6664C506.188 29.4607 505.872 29.4433 505.666 29.6276L506.334 30.3724ZM458.334 73.3724L506.334 30.3724L505.666 29.6276L457.666 72.6276L458.334 73.3724Z" fill="#C4C4C4"/>
<path d="M482.354 78.6464C482.158 78.4512 481.842 78.4512 481.646 78.6464L478.464 81.8284C478.269 82.0237 478.269 82.3403 478.464 82.5355C478.66 82.7308 478.976 82.7308 479.172 82.5355L482 79.7071L484.828 82.5355C485.024 82.7308 485.34 82.7308 485.536 82.5355C485.731 82.3403 485.731 82.0237 485.536 81.8284L482.354 78.6464ZM481.646 117.354C481.842 117.549 482.158 117.549 482.354 117.354L485.536 114.172C485.731 113.976 485.731 113.66 485.536 113.464C485.34 113.269 485.024 113.269 484.828 113.464L482 116.293L479.172 113.464C478.976 113.269 478.66 113.269 478.464 113.464C478.269 113.66 478.269 113.976 478.464 114.172L481.646 117.354ZM481.5 79V117H482.5V79H481.5Z" fill="#C4C4C4"/>
</svg>
